<?xml version="1.0" standalone="no"?><!DOCTYPE svg PUBLIC "-//W3C//DTD SVG 1.1//EN" "http://www.w3.org/Graphics/SVG/1.1/DTD/svg11.dtd"><svg t="1503557658932" class="icon" style="" viewBox="0 0 1024 1024" version="1.1" xmlns="http://www.w3.org/2000/svg" p-id="16489" xmlns:xlink="http://www.w3.org/1999/xlink" width="32" height="32"><defs><style type="text/css"></style></defs><path d="M0 462.099692c0-94.129231 73.728-171.323077 166.478769-176.915692C192.118154 192.984615 275.692308 127.330462 374.153846 127.330462c6.616615 0 13.312 0.354462 20.164923 1.063385 46.513231-73.255385 128.393846-119.217231 216.142769-119.217231 121.856 0 226.500923 87.670154 250.564923 204.524308C955.825231 237.686154 1024 322.717538 1024 422.715077c0 35.328-8.743385 70.459077-25.206154 101.533538-10.200615 19.180308-34.028308 26.466462-53.287385 16.344615-19.219692-10.200615-26.545231-34.028308-16.344615-53.248C939.677538 467.574154 945.230769 445.243077 945.230769 422.715077c0-70.144-53.011692-128.669538-123.273846-136.192-18.825846-2.008615-33.555692-17.092923-35.091692-35.958154-7.404308-91.175385-84.913231-162.619077-176.403692-162.619077-67.741538 0-130.481231 39.620923-159.783385 100.982154-7.995077 16.738462-26.624 25.560615-44.662154 21.346462C394.279385 207.478154 383.881846 206.099692 374.153846 206.099692c-70.616615 0-129.220923 53.405538-136.270769 124.219077C236.819692 341.070769 231.384615 350.877538 222.838154 357.533538 214.331077 364.150154 203.500308 366.907077 192.787692 365.331692c-5.12-0.787692-10.24-1.693538-15.556923-1.693538-54.272 0-98.461538 44.189538-98.461538 98.461538s44.189538 98.461538 98.461538 98.461538l127.094154 0c21.740308 0 39.384615 17.604923 39.384615 39.384615s-17.644308 39.384615-39.384615 39.384615L177.230769 639.330462C79.517538 639.291077 0 559.852308 0 462.099692zM569.068308 472.576c-18.786462-10.909538-42.889846-4.529231-53.838769 14.257231l-210.668308 362.653538c-10.909538 18.865231-4.529231 42.929231 14.257231 53.838769 6.222769 3.623385 13.036308 5.316923 19.731692 5.316923 13.587692 0 26.781538-7.010462 34.107077-19.613538l210.628923-362.614154C594.313846 507.588923 587.894154 483.485538 569.068308 472.576zM266.397538 794.939077l-68.923077 0 48.718769-48.758154c7.955692-7.916308 7.955692-20.834462 0-28.829538-7.916308-7.916308-20.873846-7.916308-28.790154 0l-48.758154 48.758154 0-68.923077c0-11.303385-9.137231-20.401231-20.401231-20.401231s-20.401231 9.058462-20.401231 20.401231l0 68.923077-48.758154-48.758154c-7.916308-7.916308-20.873846-7.916308-28.790154 0-7.955692 7.995077-7.955692 20.913231 0 28.829538l48.718769 48.758154-68.923077 0c-11.264 0-20.401231 9.058462-20.401231 20.401231 0 11.224615 9.137231 20.401231 20.401231 20.401231l68.923077 0-48.718769 48.679385c-7.955692 7.995077-7.955692 20.913231 0 28.829538 3.977846 4.017231 9.176615 5.986462 14.414769 5.986462s10.436923-2.008615 14.414769-5.986462l48.758154-48.679385 0 68.923077c0 11.224615 9.137231 20.401231 20.401231 20.401231s20.401231-9.137231 20.401231-20.401231l0-68.923077 48.758154 48.679385c3.977846 4.017231 9.176615 5.986462 14.414769 5.986462s10.436923-2.008615 14.414769-5.986462c7.955692-7.916308 7.955692-20.834462 0-28.829538l-48.718769-48.679385 68.923077 0c11.264 0 20.401231-9.137231 20.401231-20.401231C286.759385 803.997538 277.622154 794.939077 266.397538 794.939077zM984.615385 739.170462l-101.848615 0 71.995077-71.995077c15.399385-15.399385 15.399385-40.290462 0-55.689846s-40.290462-15.399385-55.689846 0L827.076923 683.480615l0-101.848615c0-21.779692-17.604923-39.384615-39.384615-39.384615s-39.384615 17.644308-39.384615 39.384615l0 101.848615-71.995077-71.995077c-15.399385-15.399385-40.290462-15.399385-55.689846 0s-15.399385 40.290462 0 55.689846l71.995077 71.995077L590.769231 739.170462c-21.779692 0-39.384615 17.604923-39.384615 39.384615s17.604923 39.384615 39.384615 39.384615l101.848615 0-71.995077 71.995077c-15.399385 15.399385-15.399385 40.290462 0 55.689846 7.68 7.68 17.762462 11.539692 27.844923 11.539692s20.164923-3.859692 27.844923-11.539692L748.307692 873.629538l0 101.848615c0 21.779692 17.604923 39.384615 39.384615 39.384615s39.384615-17.604923 39.384615-39.384615l0-101.848615 71.995077 71.995077c7.68 7.68 17.762462 11.539692 27.844923 11.539692s20.164923-3.859692 27.844923-11.539692c15.399385-15.399385 15.399385-40.290462 0-55.689846l-71.995077-71.995077L984.615385 817.939692c21.779692 0 39.384615-17.604923 39.384615-39.384615S1006.395077 739.170462 984.615385 739.170462z" p-id="16490" fill="#ffffff"></path></svg>