<?xml version="1.0" standalone="no"?><!DOCTYPE svg PUBLIC "-//W3C//DTD SVG 1.1//EN" "http://www.w3.org/Graphics/SVG/1.1/DTD/svg11.dtd"><svg t="1503557289873" class="icon" style="" viewBox="0 0 1024 1024" version="1.1" xmlns="http://www.w3.org/2000/svg" p-id="12902" xmlns:xlink="http://www.w3.org/1999/xlink" width="32" height="32"><defs><style type="text/css"></style></defs><path d="M235.264 773.568l25.344-45.952c8.064-14.592 25.856-19.52 39.744-11.072 14.016 8.256 18.816 26.816 10.752 41.28L285.696 803.84c-8.064 14.464-25.856 19.52-39.808 11.136C231.936 806.656 227.2 788.032 235.264 773.568L235.264 773.568zM425.344 773.568l25.344-45.952c8-14.592 25.792-19.52 39.744-11.072 13.952 8.256 18.752 26.816 10.688 41.28L475.84 803.84c-8.064 14.464-25.92 19.52-39.808 11.136C422.016 806.656 417.344 788.032 425.344 773.568L425.344 773.568zM607.808 773.568l25.344-45.952c8.064-14.592 25.856-19.52 39.872-11.072 13.952 8.256 18.688 26.816 10.624 41.28l-25.408 46.016c-8.064 14.464-25.792 19.52-39.808 11.136C604.544 806.656 599.808 788.032 607.808 773.568L607.808 773.568zM607.808 773.568" p-id="12903" fill="#333330"></path><path d="M184.704 870.592c3.904-16.256 19.776-26.24 35.648-22.016 15.808 4.096 25.536 20.544 21.696 36.928l-61.568 94.528c-3.776 16.32-19.776 26.176-35.584 22.08-15.872-4.032-25.536-20.608-21.696-36.992L184.704 870.592 184.704 870.592z" p-id="12904" fill="#333330"></path><path d="M377.28 870.592c3.904-16.256 19.776-26.24 35.648-22.016 15.872 4.096 25.536 20.544 21.76 36.928l-61.568 94.528c-3.84 16.32-19.776 26.112-35.648 22.08-15.872-4.096-25.536-20.608-21.76-36.992L377.28 870.592 377.28 870.592z" p-id="12905" fill="#333330"></path><path d="M547.136 870.592c3.84-16.192 19.712-26.24 35.648-22.016 15.808 4.096 25.472 20.544 21.696 36.928l-61.568 94.528c-3.84 16.384-19.712 26.176-35.584 22.016-15.872-4.032-25.6-20.544-21.76-36.928L547.136 870.592 547.136 870.592z" p-id="12906" fill="#333330"></path><path d="M834.048 615.872c-12.48 0-22.784-19.328-22.784-31.872 0-12.48 9.024-25.984 21.44-27.2 81.92-8.128 132.16-49.92 132.16-129.664 0-79.808-52.288-135.36-132.032-135.36l-20.544 0c-12.48 0-32.192-11.776-32.192-24.256L780.096 246.848c0-94.656-70.464-167.552-165.184-167.552-28.736 0-52.032 4.928-77.056 18.624C526.784 104 511.936 89.28 505.92 78.336c-6.016-11.008-2.048-24.704 8.96-30.72 31.744-17.344 67.84-26.56 104.128-26.56 119.04 0 216 96.192 217.152 214.976C939.968 237.248 1024 321.984 1024 425.92 1024 530.688 938.816 615.872 834.048 615.872L834.048 615.872zM832.704 612.48" p-id="12907" fill="#333330"></path><path d="M620.032 674.176l-430.08 0C85.12 674.176 0 588.992 0 484.288 0 380.16 84.032 295.36 187.84 294.272c1.152-118.72 98.112-214.976 217.152-214.976S620.864 175.552 622.08 294.272c103.744 1.088 187.904 85.888 187.904 190.016C809.92 588.992 724.672 674.176 620.032 674.176L620.032 674.176zM198.08 340.992c-76.672 0-139.072 62.464-139.072 139.2 0 76.672 62.4 139.072 139.072 139.072L611.84 619.264c76.672 0 139.2-62.4 139.2-139.072 0-76.736-62.528-139.2-139.2-139.2L592 340.992c-12.032 0-21.824-9.728-21.824-21.696L570.176 299.392c0-91.2-74.112-165.312-165.248-165.312S239.68 208.192 239.68 299.392l0 19.904c0 11.968-9.792 21.696-21.824 21.696L198.08 340.992 198.08 340.992zM198.08 340.992" p-id="12908" fill="#333330"></path></svg>