<?xml version="1.0" standalone="no"?><!DOCTYPE svg PUBLIC "-//W3C//DTD SVG 1.1//EN" "http://www.w3.org/Graphics/SVG/1.1/DTD/svg11.dtd"><svg t="1503556824361" class="icon" style="" viewBox="0 0 1024 1024" version="1.1" xmlns="http://www.w3.org/2000/svg" p-id="3717" xmlns:xlink="http://www.w3.org/1999/xlink" width="32" height="32"><defs><style type="text/css"></style></defs><path d="M304.53 784.774h-29.644l17.552-17.546a9.362 9.362 0 0 0 0-13.234 9.37 9.37 0 0 0-13.226 0l-30.774 30.786h-37.064l65.876-65.882a9.328 9.328 0 0 0 0-13.212 9.36 9.36 0 0 0-13.224 0l-65.874 65.866V734.5l30.774-30.788a9.36 9.36 0 0 0 0-13.234 9.364 9.364 0 0 0-13.224 0l-17.55 17.548v-29.624a9.332 9.332 0 0 0-9.356-9.344 9.324 9.324 0 0 0-9.354 9.344v29.624l-17.55-17.548a9.364 9.364 0 0 0-13.224 0 9.356 9.356 0 0 0 0 13.234l30.774 30.788v37.052l-65.874-65.866a9.35 9.35 0 0 0-13.214 0 9.332 9.332 0 0 0 0 13.212l65.864 65.882H129.14l-30.774-30.786a9.356 9.356 0 0 0-13.214 0 9.386 9.386 0 0 0 0 13.256l17.54 17.53H73.06a9.35 9.35 0 0 0-9.356 9.348 9.352 9.352 0 0 0 9.356 9.366h29.642l-17.55 17.546a9.334 9.334 0 0 0 0 13.214 9.272 9.272 0 0 0 6.608 2.748 9.288 9.288 0 0 0 6.606-2.748l30.784-30.764h37.066l-65.864 65.866a9.34 9.34 0 1 0 6.606 15.96 9.36 9.36 0 0 0 6.608-2.728L179.44 816.7v37.076l-30.774 30.762a9.358 9.358 0 0 0 0 13.236 9.328 9.328 0 0 0 13.224 0l17.55-17.546v29.64a9.34 9.34 0 0 0 9.354 9.346 9.346 9.346 0 0 0 9.356-9.346v-29.64l17.55 17.546a9.32 9.32 0 0 0 13.224 0 9.36 9.36 0 0 0 0-13.236l-30.774-30.762V816.7l65.874 65.884a9.376 9.376 0 0 0 13.224 0 9.352 9.352 0 0 0 0-13.232l-65.876-65.866h37.076l30.762 30.764a9.33 9.33 0 0 0 13.226 0 9.362 9.362 0 0 0 0-13.234l-17.542-17.53h29.634a9.36 9.36 0 0 0 9.356-9.368 9.352 9.352 0 0 0-9.354-9.344zM838.324 290.762c1.018-8.572 1.936-18.384 1.936-25.714 0-122.118-98.604-221.454-219.774-221.454-76.89 0-147.804 40.72-187.414 105.77-24.452-16.694-53.314-25.632-83.474-25.632-82.418 0-149.464 67.574-149.464 150.624 0 8.958 0.774 17.852 2.32 26.568-70.394 26.02-117.902 93.392-117.902 170.696 0 98.706 77.6 173.144 180.51 173.144 11.786 0 21.346-9.63 21.346-21.522 0-11.872-9.56-21.5-21.346-21.5-78.59 0-137.848-55.928-137.848-130.122 0-64.64 43.52-120.244 105.852-135.148a21.436 21.436 0 0 0 13.742-10.504 21.76 21.76 0 0 0 1.538-17.306c-3.686-10.976-5.538-22.5-5.538-34.306 0-59.332 47.898-107.624 106.79-107.624 28.308 0 54.968 11.036 75.084 31.09a21.284 21.284 0 0 0 20.21 5.558c6.31-1.568 11.552-5.986 14.25-11.972 28.658-63.688 92-104.834 161.344-104.834 97.646 0 177.1 80.076 177.1 178.472 0 10.14-2.85 30.602-3.97 37.81a22.24 22.24 0 0 0-0.286 3.48c0 10.588 7.626 19.486 17.786 21.216 61.71 14.516 106.4 71.218 106.4 135.292 0 76.592-61.834 138.894-137.846 138.894-11.78 0-21.34 9.628-21.34 21.5 0 11.886 9.56 21.522 21.34 21.522 99.542 0 180.52-81.626 180.52-181.916 0-77.734-50.206-147.14-121.866-172.082z" fill="#ffffff" p-id="3718"></path><path d="M698.382 608.906h-45.088l26.694-26.876a14.436 14.436 0 0 0 0-20.296 14.164 14.164 0 0 0-20.106 0l-46.808 47.172h-56.368l100.182-100.966c5.556-5.596 5.556-14.658 0-20.256a14.11 14.11 0 0 0-20.118 0l-100.182 100.966v-56.824l46.796-47.152c5.558-5.6 5.558-14.68 0-20.28a14.14 14.14 0 0 0-20.106 0l-26.694 26.894v-45.422c0-7.92-6.374-14.334-14.228-14.334-7.86 0-14.224 6.414-14.224 14.334v45.422l-26.68-26.894a14.15 14.15 0 0 0-20.116 0c-5.558 5.6-5.558 14.662 0 20.28l46.796 47.152v56.824l-100.18-100.966a14.108 14.108 0 0 0-20.116 0c-5.548 5.6-5.548 14.662 0 20.256l100.192 100.966h-56.376l-46.806-47.152a14.14 14.14 0 0 0-20.116 0c-5.558 5.6-5.558 14.68 0 20.278l26.692 26.876h-45.076c-7.872 0-14.234 6.432-14.234 14.334 0 7.94 6.362 14.334 14.234 14.334h45.086l-26.702 26.914c-5.558 5.58-5.558 14.66 0 20.258a14.16 14.16 0 0 0 10.056 4.212 14.204 14.204 0 0 0 10.058-4.212l46.816-47.172h56.366l-100.192 100.982c-5.548 5.602-5.548 14.66 0 20.26a14.092 14.092 0 0 0 10.06 4.194c3.642 0 7.28-1.382 10.056-4.194l100.18-100.944v56.782l-46.796 47.176c-5.558 5.6-5.558 14.68 0 20.278a14.14 14.14 0 0 0 20.116 0l26.68-26.894v45.424c0 7.92 6.366 14.354 14.222 14.354 7.86 0 14.23-6.434 14.23-14.354v-45.424l26.692 26.894a14.156 14.156 0 0 0 10.058 4.196 14.09 14.09 0 0 0 10.046-4.196c5.558-5.598 5.558-14.678 0-20.278l-46.796-47.176v-56.802l100.182 100.964a14.118 14.118 0 0 0 10.068 4.194c3.632 0 7.28-1.382 10.046-4.194a14.396 14.396 0 0 0 0-20.26l-100.184-100.982h56.376l46.798 47.172a14.156 14.156 0 0 0 10.054 4.212 14.178 14.178 0 0 0 10.048-4.212c5.556-5.598 5.556-14.678 0-20.258l-26.684-26.914h45.076c7.862 0 14.22-6.394 14.22-14.334 0.022-7.904-6.34-14.336-14.2-14.336z" fill="#ffffff" p-id="3719"></path></svg>