<?xml version="1.0" standalone="no"?><!DOCTYPE svg PUBLIC "-//W3C//DTD SVG 1.1//EN" "http://www.w3.org/Graphics/SVG/1.1/DTD/svg11.dtd"><svg t="1503556332549" class="icon" style="" viewBox="0 0 1225 1024" version="1.1" xmlns="http://www.w3.org/2000/svg" p-id="12565" xmlns:xlink="http://www.w3.org/1999/xlink" width="38.28125" height="32"><defs><style type="text/css"></style></defs><path d="M957.622857 225.737143c-18.212571 0-36.352 1.938286-54.125714 5.796571C846.756571 99.565714 714.349714 11.556571 571.081143 11.556571c-178.761143 0-327.442286 126.445714-357.028572 302.116572l-1.261714-0.018286C95.890286 313.654857 0.786286 409.197714 0.786286 526.610286c0 117.394286 95.104 212.882286 212.004571 212.882285H957.622857c140.982857 0 255.725714-115.254857 255.725714-256.877714 0-141.641143-114.742857-256.877714-255.725714-256.877714z m204.251429 256.877714c0 113.28-91.611429 205.403429-204.251429 205.403429H212.772571c-88.539429 0-160.585143-72.411429-160.585142-161.408 0-89.051429 72.045714-161.499429 160.585142-161.499429 5.906286 0 12.361143 0.475429 20.333715 1.444572l26.112 3.254857 2.633143-26.203429c16.128-159.963429 149.065143-280.594286 309.211428-280.594286 131.035429 0 248.630857 83.565714 292.626286 207.908572l8.32 23.442286 23.698286-7.533715c20.114286-6.4 40.923429-9.618286 61.878857-9.618285 112.64 0 204.269714 92.141714 204.269714 205.403428zM216.393143 881.170286l64.950857 117.997714c15.085714 27.355429 57.197714 2.925714 42.093714-24.484571l-64.987428-117.997715c-15.085714-27.355429-57.161143-2.925714-42.057143 24.484572M457.782857 881.170286c21.668571 39.314286 43.337143 78.665143 64.969143 117.997714 15.085714 27.355429 57.197714 2.925714 42.093714-24.484571l-64.987428-117.997715c-15.067429-27.355429-57.161143-2.925714-42.075429 24.484572M711.515429 881.170286l64.987428 117.997714c15.085714 27.355429 57.161143 2.925714 42.093714-24.484571l-64.987428-117.997715c-15.085714-27.355429-57.179429-2.925714-42.093714 24.484572M956.745143 881.170286c21.668571 39.314286 43.300571 78.665143 64.987428 117.997714 15.067429 27.355429 57.161143 2.925714 42.075429-24.484571l-64.987429-117.997715c-15.067429-27.355429-57.179429-2.925714-42.075428 24.484572" fill="#333330" p-id="12566"></path></svg>