<?xml version="1.0" standalone="no"?><!DOCTYPE svg PUBLIC "-//W3C//DTD SVG 1.1//EN" "http://www.w3.org/Graphics/SVG/1.1/DTD/svg11.dtd"><svg t="1503557697819" class="icon" style="" viewBox="0 0 1024 1024" version="1.1" xmlns="http://www.w3.org/2000/svg" p-id="16974" xmlns:xlink="http://www.w3.org/1999/xlink" width="32" height="32"><defs><style type="text/css"></style></defs><path d="M521.216 99.918769c-52.420923 0-100.115692 33.28-118.744615 82.786462l-13.627077 36.233846-36.470154-12.996923C341.188923 201.924923 330.909538 199.995077 321.063385 199.995077c-40.448 0-108.347077 12.248615-108.347077 94.089846l0.512 3.505231 4.292923 60.337231-56.910769-20.48C153.166769 334.769231 146.432 333.469538 139.972923 333.469538c-33.476923 0-60.691692 27.214769-60.691692 60.691692s27.214769 60.691692 60.691692 60.691692l0 78.769231c-76.918154 0-139.460923-62.542769-139.460923-139.460923 0-76.130462 61.321846-138.24 137.176615-139.460923 16.265846-82.274462 84.637538-133.474462 183.374769-133.474462 7.68 0 15.320615 0.551385 23.000615 1.693538 36.588308-62.030769 104.014769-101.769846 177.152-101.769846 113.742769 0 206.217846 92.475077 206.217846 206.139077l-0.669538 8.152615-78.572308-4.529231 0.669538-6.852923C648.704 157.065846 591.517538 99.918769 521.216 99.918769zM264.940308 769.142154 194.323692 769.142154l49.939692-49.939692c7.68-7.68 7.68-20.164923 0-27.844923s-20.164923-7.68-27.844923 0l-49.939692 49.939692 0-70.616615c0-10.870154-8.822154-19.692308-19.692308-19.692308s-19.692308 8.822154-19.692308 19.692308l0 70.616615-49.939692-49.939692c-7.68-7.68-20.164923-7.68-27.844923 0s-7.68 20.164923 0 27.844923l49.939692 49.939692L28.632615 769.142154c-10.870154 0-19.692308 8.822154-19.692308 19.692308s8.822154 19.692308 19.692308 19.692308L99.249231 808.526769l-49.939692 49.939692c-7.68 7.68-7.68 20.164923 0 27.844923 3.859692 3.859692 8.900923 5.750154 13.942154 5.750154s10.082462-1.929846 13.942154-5.750154l49.939692-49.939692 0 70.616615c0 10.870154 8.822154 19.692308 19.692308 19.692308s19.692308-8.822154 19.692308-19.692308l0-70.616615 49.939692 49.939692c3.859692 3.859692 8.900923 5.750154 13.942154 5.750154s10.082462-1.929846 13.942154-5.750154c7.68-7.68 7.68-20.164923 0-27.844923l-49.939692-49.939692 70.616615 0c10.870154 0 19.692308-8.822154 19.692308-19.692308S275.810462 769.142154 264.940308 769.142154zM708.411077 843.145846l-70.616615 0 49.939692-49.939692c7.68-7.68 7.68-20.164923 0-27.844923s-20.164923-7.68-27.844923 0l-49.939692 49.939692 0-70.616615c0-10.870154-8.822154-19.692308-19.692308-19.692308s-19.692308 8.822154-19.692308 19.692308l0 70.616615-49.939692-49.939692c-7.68-7.68-20.164923-7.68-27.844923 0s-7.68 20.164923 0 27.844923l49.939692 49.939692-70.616615 0c-10.870154 0-19.692308 8.822154-19.692308 19.692308s8.822154 19.692308 19.692308 19.692308l70.616615 0-49.939692 49.939692c-7.68 7.68-7.68 20.164923 0 27.844923 3.859692 3.859692 8.900923 5.750154 13.942154 5.750154s10.082462-1.929846 13.942154-5.750154l49.939692-49.939692 0 70.616615c0 10.870154 8.822154 19.692308 19.692308 19.692308s19.692308-8.822154 19.692308-19.692308l0-70.616615 49.939692 49.939692c3.859692 3.859692 8.900923 5.750154 13.942154 5.750154s10.082462-1.929846 13.942154-5.750154c7.68-7.68 7.68-20.164923 0-27.844923l-49.939692-49.939692 70.616615 0c10.870154 0 19.692308-8.822154 19.692308-19.692308S719.320615 843.145846 708.411077 843.145846zM993.240615 884.657231l-31.232 0 22.094769-22.094769c7.68-7.68 7.68-20.164923 0-27.844923s-20.164923-7.68-27.844923 0l-22.094769 22.094769 0-31.232c0-10.870154-8.822154-19.692308-19.692308-19.692308s-19.692308 8.822154-19.692308 19.692308l0 31.192615-22.094769-22.094769c-7.68-7.68-20.164923-7.68-27.844923 0s-7.68 20.164923 0 27.844923l22.134154 22.134154-31.271385 0c-10.870154 0-19.692308 8.822154-19.692308 19.692308s8.822154 19.692308 19.692308 19.692308l31.271385 0-22.134154 22.134154c-7.68 7.68-7.68 20.164923 0 27.844923 3.859692 3.859692 8.900923 5.750154 13.942154 5.750154s10.082462-1.929846 13.942154-5.750154l22.094769-22.094769 0 31.232c0 10.870154 8.822154 19.692308 19.692308 19.692308s19.692308-8.822154 19.692308-19.692308L934.203077 951.926154l22.094769 22.094769c3.859692 3.859692 8.900923 5.750154 13.942154 5.750154s10.082462-1.929846 13.942154-5.750154c7.68-7.68 7.68-20.164923 0-27.844923l-22.134154-22.134154 31.271385 0c10.870154 0 19.692308-8.822154 19.692308-19.692308S1004.110769 884.657231 993.240615 884.657231zM387.859692 430.552615 356.627692 430.552615l22.094769-22.094769c7.68-7.68 7.68-20.164923 0-27.844923s-20.164923-7.68-27.844923 0l-22.094769 22.094769L328.782769 371.475692c0-10.870154-8.822154-19.692308-19.692308-19.692308s-19.692308 8.822154-19.692308 19.692308l0 31.192615L267.303385 380.573538c-7.68-7.68-20.164923-7.68-27.844923 0s-7.68 20.164923 0 27.844923l22.134154 22.134154L230.321231 430.552615c-10.870154 0-19.692308 8.822154-19.692308 19.692308s8.822154 19.692308 19.692308 19.692308l31.232 0L239.458462 491.992615c-7.68 7.68-7.68 20.164923 0 27.844923 3.859692 3.859692 8.900923 5.750154 13.942154 5.750154s10.082462-1.929846 13.942154-5.750154l22.094769-22.094769 0 31.232c0 10.870154 8.822154 19.692308 19.692308 19.692308s19.692308-8.822154 19.692308-19.692308l0-31.232 22.094769 22.094769c3.859692 3.859692 8.900923 5.750154 13.942154 5.750154s10.082462-1.929846 13.942154-5.750154c7.68-7.68 7.68-20.164923 0-27.844923l-22.094769-22.094769 31.232 0c10.870154 0 19.692308-8.822154 19.692308-19.692308S398.729846 430.552615 387.859692 430.552615zM826.564923 568.832l71.995077 71.995077c7.68 7.68 17.762462 11.539692 27.844923 11.539692s20.164923-3.859692 27.844923-11.539692c15.399385-15.399385 15.399385-40.290462 0-55.689846l-71.995077-71.995077 101.848615 0c21.779692 0 39.384615-17.644308 39.384615-39.384615s-17.604923-39.384615-39.384615-39.384615l-101.848615 0 71.995077-71.995077c15.399385-15.399385 15.399385-40.290462 0-55.689846s-40.290462-15.399385-55.689846 0l-71.995077 71.995077L826.564923 276.834462c0-21.740308-17.604923-39.384615-39.384615-39.384615s-39.384615 17.644308-39.384615 39.384615l0 101.848615-71.995077-71.995077c-15.399385-15.399385-40.290462-15.399385-55.689846 0s-15.399385 40.290462 0 55.689846l71.995077 71.995077-101.848615 0c-21.779692 0-39.384615 17.644308-39.384615 39.384615s17.604923 39.384615 39.384615 39.384615l101.848615 0-71.995077 71.995077c-15.399385 15.399385-15.399385 40.290462 0 55.689846 7.68 7.68 17.762462 11.539692 27.844923 11.539692s20.164923-3.859692 27.844923-11.539692l71.995077-71.995077 0 101.848615c0 21.779692 17.604923 39.384615 39.384615 39.384615s39.384615-17.604923 39.384615-39.384615L826.564923 568.832z" p-id="16975" fill="#ffffff"></path></svg>