<?xml version="1.0" standalone="no"?><!DOCTYPE svg PUBLIC "-//W3C//DTD SVG 1.1//EN" "http://www.w3.org/Graphics/SVG/1.1/DTD/svg11.dtd"><svg t="1503557565253" class="icon" style="" viewBox="0 0 1024 1024" version="1.1" xmlns="http://www.w3.org/2000/svg" p-id="15365" xmlns:xlink="http://www.w3.org/1999/xlink" width="32" height="32"><defs><style type="text/css"></style></defs><path d="M272.164759 866.576783c-21.066581-11.158555-47.253981-3.188743-58.527151 17.876815l-22.202494 41.675727c-11.157531 21.065558-3.18772 47.253981 17.877838 58.526128 6.490054 3.529517 13.436521 5.123889 20.270419 5.123888 15.486281 0 30.402558-8.311609 38.255708-23.000703l22.205564-41.675728c11.155484-21.065558 3.18465-47.252958-17.879884-58.526127zM512.8504 683.38676c-21.269204-11.266006-47.710393-3.21842-59.092037 18.050784L344.900032 915.280844c-11.266006 21.26818-3.219444 47.710393 18.050783 59.092037 6.552478 3.562264 13.565462 5.173009 20.464855 5.17301 15.632619 0 30.808826-8.507067 38.627183-23.221746l108.85833-213.843301c11.264982-21.270227 3.217397-47.71244-18.050783-59.094084zM238.081228 683.38676c-21.269204-11.266006-47.710393-3.21842-59.092037 18.050784L70.13086 915.280844c-11.266006 21.26818-3.219444 47.710393 18.051807 59.092037 6.550432 3.562264 13.565462 5.173009 20.462808 5.17301 15.633642 0 30.80985-8.507067 38.629229-23.221746l108.856284-213.843301c11.267029-21.270227 3.219444-47.71244-18.04976-59.094084zM362.347042 801.331372l22.202494-41.674704c11.157531-21.065558 3.188743-47.253981-17.877838-58.527151-21.066581-11.157531-47.253981-3.188743-58.526127 17.877838l-22.201471 41.674704c-11.159578 21.065558-3.189767 47.253981 17.876815 58.526128 6.491078 3.529517 13.436521 5.123889 20.269395 5.123888 15.483211 0.001023 30.399488-8.311609 38.256732-23.000703zM795.298753 683.38676c-21.26818-11.266006-47.710393-3.21842-59.092037 18.050784L627.348385 915.280844c-11.266006 21.26818-3.219444 47.710393 18.051807 59.092037 6.551455 3.562264 13.565462 5.173009 20.462808 5.17301 15.634666 0 30.80985-8.507067 38.629229-23.221746l108.856284-213.843301c11.264982-21.270227 3.21842-47.71244-18.04976-59.094084zM640.714295 801.331372l22.202494-41.674704c11.158555-21.065558 3.18772-47.253981-17.878861-58.527151-21.064535-11.157531-47.253981-3.188743-58.526128 17.877838l-22.202494 41.674704c-11.157531 21.065558-3.18772 47.253981 17.877838 58.526128 6.492101 3.529517 13.437544 5.123889 20.269396 5.123888 15.483211 0.001023 30.399488-8.311609 38.257755-23.000703zM550.532012 866.576783c-21.066581-11.158555-47.253981-3.188743-58.527151 17.876815l-22.201471 41.675727c-11.158555 21.065558-3.18772 47.253981 17.876815 58.526128 6.490054 3.529517 13.437544 5.123889 20.270419 5.123888 15.484234 0 30.400512-8.311609 38.258778-23.000703l22.202494-41.675728c11.155484-21.065558 3.18465-47.252958-17.879884-58.526127z" p-id="15366" fill="#ffffff"></path><path d="M1000.890822 439.784586c-14.715702-34.60339-35.869268-65.644516-62.770963-92.316981-26.78708-26.556828-58.055389-47.479117-92.776463-62.081228-34.489799-14.484426-70.931116-22.07253-108.52779-22.763288-3.679949-14.025967-8.507067-27.821682-14.257243-41.386121-15.520051-36.32875-37.591557-68.863959-65.760154-96.801279-28.164503-27.93732-60.930988-49.78062-97.373329-65.070419-37.823857-15.864918-77.832555-23.912504-119.106108-23.912504-41.271506 0-81.278158 8.046562-119.104061 23.912504-36.444388 15.289799-69.20985 37.247713-97.375376 65.070419-28.165526 27.936297-50.354717 60.471506-65.760154 96.801279-16.096194 37.708219-24.258395 77.715894-24.258394 118.873809 0 7.701695 0.344867 15.289799 0.918964 22.876879-25.635817 13.910329-48.974224 32.076751-68.86396 54.148257-42.534314 47.020659-65.875791 107.60678-65.875791 170.49338 0 34.489799 6.897346 68.05961 20.463831 99.79047 12.990342 30.350368 31.616246 57.712568 55.29952 81.164567 8.392453 8.277838 17.246434 15.980556 26.556828 22.994564l36.32875-83.694276c-31.499584-30.58062-51.273681-73.233642-51.273681-120.138663 0-85.764503 65.643492-157.042533 149.570067-166.928046-9.998081-24.948129-15.748257-52.080077-15.748257-80.591494 0-120.024049 98.06511-217.283786 219.123761-217.283786 99.967509 0 184.246114 66.32504 210.579853 157.020019a244.211065 244.211065 0 0 0-68.832236 40.835561c-18.394627 15.520051-20.695107 43.111481-5.175056 61.506108 8.622705 10.231404 21.039974 15.520051 33.454174 15.520051 9.886537 0 19.889735-3.448673 28.051934-10.231403 28.165526-23.797889 64.151455-36.90387 101.054302-36.90387 1.481804 0 2.945187-0.075728 4.39015-0.218996 107.445091 6.147234 192.777742 94.459866 192.777742 202.673489 0 68.287816-34.029293 128.761369-86.223985 165.548577l-18.509242 107.378574c43.916853-15.864918 83.579661-42.075855 115.657436-77.028206 49.318068-53.574161 76.451039-123.126831 76.451039-195.900992 0-39.317941-7.81631-77.487688-23.106108-113.356955z" p-id="15367" fill="#ffffff"></path></svg>