<?xml version="1.0" standalone="no"?><!DOCTYPE svg PUBLIC "-//W3C//DTD SVG 1.1//EN" "http://www.w3.org/Graphics/SVG/1.1/DTD/svg11.dtd"><svg t="1503556946719" class="icon" style="" viewBox="0 0 1024 1024" version="1.1" xmlns="http://www.w3.org/2000/svg" p-id="6386" xmlns:xlink="http://www.w3.org/1999/xlink" width="32" height="32"><defs><style type="text/css"></style></defs><path d="M950.552 463.686c0 100.522-81.168 182.334-180.94 182.334-11.802 0-21.384-9.652-21.384-21.57 0-11.894 9.582-21.546 21.384-21.546 76.194 0 138.164-62.446 138.164-139.214 0-64.22-44.79-121.054-106.64-135.604-10.186-1.736-17.826-10.654-17.826-21.264 0-1.164 0.1-2.348 0.276-3.492 1.13-7.224 3.988-27.73 3.988-37.894 0-98.626-79.636-178.886-177.51-178.886-69.506 0-132.988 41.244-161.712 105.074-2.702 6-7.958 10.43-14.282 12a21.32 21.32 0 0 1-20.256-5.572c-20.162-20.1-46.884-31.16-75.268-31.16-59.016 0-107.024 48.406-107.024 107.872 0 11.836 1.856 23.386 5.552 34.386a21.814 21.814 0 0 1-1.542 17.346 21.5 21.5 0 0 1-13.774 10.53c-62.476 14.936-106.096 70.668-106.096 135.458 0 74.362 59.394 130.42 138.164 130.42 11.818 0 21.396 9.652 21.396 21.546 0 11.918-9.58 21.57-21.396 21.57-103.146 0-180.926-74.608-180.926-173.54 0-77.484 47.622-145.01 118.166-171.088a153.25 153.25 0 0 1-2.316-26.632c0-83.24 67.2-150.97 149.796-150.97 30.242 0 59.166 8.958 83.678 25.692 39.7-65.198 110.778-106.012 187.842-106.012 121.454 0 220.284 99.566 220.284 221.964 0 7.348-0.92 17.184-1.94 25.776 71.82 24.998 122.142 94.562 122.142 172.476zM73.5 755.502a9.38 9.38 0 0 1 13.246 0l30.844 30.858h37.162l-66.028-66.04a9.37 9.37 0 0 1 0-13.244 9.384 9.384 0 0 1 13.252 0l66.028 66.018v-37.14L137.16 705.1a9.382 9.382 0 0 1 0-13.266 9.382 9.382 0 0 1 13.254 0l17.59 17.588v-29.688a9.352 9.352 0 0 1 9.376-9.372 9.352 9.352 0 0 1 9.378 9.372v29.688l17.59-17.588a9.382 9.382 0 0 1 13.254 0 9.382 9.382 0 0 1 0 13.266l-30.844 30.854v37.14l66.024-66.018a9.386 9.386 0 0 1 13.254 0 9.352 9.352 0 0 1 0 13.244l-66.026 66.04h37.14l30.854-30.858a9.392 9.392 0 0 1 13.256 0 9.38 9.38 0 0 1 0 13.266l-17.592 17.592h29.714a9.376 9.376 0 1 1 0 18.752H263.68l17.58 17.57a9.376 9.376 0 0 1 0 13.264 9.348 9.348 0 0 1-13.256 0l-30.834-30.834h-37.16l66.026 66.018a9.38 9.38 0 0 1 0 13.266 9.406 9.406 0 0 1-13.254 0l-66.024-66.04v37.16l30.844 30.834a9.38 9.38 0 0 1 0 13.264 9.33 9.33 0 0 1-6.624 2.758 9.304 9.304 0 0 1-6.63-2.758l-17.59-17.59v29.712a9.364 9.364 0 0 1-9.378 9.368 9.364 9.364 0 0 1-9.376-9.368v-29.712l-17.59 17.59a9.346 9.346 0 0 1-13.254 0 9.38 9.38 0 0 1 0-13.264l30.846-30.834v-37.16l-66.028 66.04a9.39 9.39 0 0 1-6.622 2.734 9.43 9.43 0 0 1-6.632-2.734 9.398 9.398 0 0 1 0-13.266l66.026-66.018H117.6l-30.856 30.834a9.31 9.31 0 0 1-6.624 2.758 9.292 9.292 0 0 1-6.622-2.758 9.356 9.356 0 0 1 0-13.244l17.59-17.59H61.38a9.374 9.374 0 0 1-9.378-9.384 9.37 9.37 0 0 1 9.378-9.368h29.702l-17.582-17.57a9.41 9.41 0 0 1 0-13.288z m261.8-145.418h45.18l-26.762-26.938c-5.562-5.616-5.562-14.714 0-20.324a14.182 14.182 0 0 1 20.172 0l46.904 47.262h56.516l-100.422-101.198a14.44 14.44 0 0 1 0-20.304 14.152 14.152 0 0 1 20.17 0l100.404 101.2v-56.958l-46.904-47.262c-5.572-5.632-5.572-14.712 0-20.324a14.174 14.174 0 0 1 20.162 0l26.744 26.958v-45.528c0-7.938 6.376-14.368 14.252-14.368s14.268 6.428 14.268 14.368v45.528l26.752-26.958a14.16 14.16 0 0 1 20.15 0c5.57 5.612 5.57 14.714 0 20.324l-46.902 47.262v56.958l100.408-101.2a14.14 14.14 0 0 1 20.162 0 14.428 14.428 0 0 1 0 20.304l-100.41 101.198h56.492l46.92-47.284a14.194 14.194 0 0 1 20.15 0 14.476 14.476 0 0 1 0 20.346l-26.756 26.938h45.194c7.876 0 14.254 6.452 14.254 14.366 0 7.96-6.376 14.368-14.254 14.368h-45.18l26.742 26.98c5.57 5.59 5.57 14.692 0 20.302a14.208 14.208 0 0 1-10.072 4.222 14.218 14.218 0 0 1-10.078-4.222l-46.904-47.286h-56.52l100.422 101.216c5.568 5.616 5.568 14.694 0 20.304a14.084 14.084 0 0 1-10.07 4.204 14.114 14.114 0 0 1-10.092-4.204l-100.408-101.196v56.932l46.902 47.288c5.57 5.61 5.57 14.708 0 20.322a14.174 14.174 0 0 1-20.15 0l-26.752-26.958v45.528c0 7.94-6.39 14.386-14.268 14.386s-14.252-6.45-14.252-14.386v-45.528L470.72 783.68a14.17 14.17 0 0 1-20.162 0c-5.572-5.614-5.572-14.712 0-20.322l46.904-47.288V659.16l-100.404 101.176a14.136 14.136 0 0 1-10.088 4.204 14.108 14.108 0 0 1-10.082-4.204c-5.562-5.614-5.562-14.692 0-20.304l100.422-101.216h-56.496l-46.924 47.288a14.244 14.244 0 0 1-10.084 4.22 14.258 14.258 0 0 1-10.088-4.22c-5.562-5.616-5.562-14.714 0-20.304l26.772-26.98H335.3c-7.886 0-14.266-6.404-14.266-14.368 0-7.916 6.38-14.368 14.266-14.368z m373.872 176.276h29.704l-17.594-17.57a9.436 9.436 0 0 1 0-13.288 9.392 9.392 0 0 1 13.256 0l30.848 30.858h37.158l-66.018-66.04a9.36 9.36 0 0 1 0-13.244 9.376 9.376 0 0 1 13.246 0l66.026 66.018v-37.14l-30.844-30.854a9.38 9.38 0 0 1 0-13.266 9.382 9.382 0 0 1 13.254 0l17.59 17.588v-29.688a9.352 9.352 0 0 1 9.376-9.372 9.356 9.356 0 0 1 9.376 9.372v29.688l17.59-17.588a9.386 9.386 0 0 1 13.256 0 9.38 9.38 0 0 1 0 13.266l-30.846 30.854v37.14l66.028-66.018a9.384 9.384 0 0 1 13.252 0 9.352 9.352 0 0 1 0 13.244l-66.026 66.04h37.15l30.844-30.858a9.392 9.392 0 0 1 13.256 0 9.38 9.38 0 0 1 0 13.266l-17.594 17.592h29.714a9.376 9.376 0 1 1 0 18.752h-29.702l17.578 17.57a9.376 9.376 0 0 1 0 13.264 9.346 9.346 0 0 1-13.258 0l-30.83-30.834H847.8l66.026 66.018a9.38 9.38 0 0 1 0 13.266 9.396 9.396 0 0 1-13.252 0l-66.03-66.04v37.16l30.848 30.834a9.376 9.376 0 0 1 0 13.264 9.328 9.328 0 0 1-6.626 2.758 9.33 9.33 0 0 1-6.63-2.758l-17.592-17.59v29.712a9.37 9.37 0 0 1-9.376 9.368 9.362 9.362 0 0 1-9.378-9.368v-29.712l-17.588 17.59a9.346 9.346 0 0 1-13.254 0 9.376 9.376 0 0 1 0-13.264l30.842-30.834v-37.16l-66.024 66.04a9.394 9.394 0 0 1-13.25 0 9.386 9.386 0 0 1 0-13.266l66.018-66.018h-37.148l-30.858 30.834a9.34 9.34 0 0 1-13.256 0 9.378 9.378 0 0 1 0-13.244l17.604-17.59h-29.71a9.372 9.372 0 0 1-9.376-9.384 9.372 9.372 0 0 1 9.382-9.368z" fill="#ffffff" p-id="6387"></path></svg>