<?xml version="1.0" standalone="no"?><!DOCTYPE svg PUBLIC "-//W3C//DTD SVG 1.1//EN" "http://www.w3.org/Graphics/SVG/1.1/DTD/svg11.dtd"><svg t="1503556364920" class="icon" style="" viewBox="0 0 1089 1024" version="1.1" xmlns="http://www.w3.org/2000/svg" p-id="13249" xmlns:xlink="http://www.w3.org/1999/xlink" width="34.03125" height="32"><defs><style type="text/css"></style></defs><path d="M857.721905 199.354921c-16.188952 0-32.312889 1.722921-48.111746 5.152508C759.174095 87.20254 641.479111 8.97219 514.12927 8.97219c-158.898794 0-291.05981 112.39619-317.35873 268.548064l-1.121524-0.016254C91.737397 277.504 7.200508 362.430984 7.200508 466.797714c0 104.350476 84.536889 189.228698 188.448508 189.228699H857.721905c125.318095 0 227.311746-102.448762 227.311746-228.335746 0-125.903238-101.993651-228.335746-227.311746-228.335746z m181.556825 228.335746c0 100.693333-81.432381 182.580825-181.556825 182.580825H195.632762c-78.701714 0-142.742349-64.365714-142.742349-143.473778 0-79.156825 64.040635-143.555048 142.742349-143.555047 5.250032 0 10.987683 0.422603 18.074413 1.284063l23.210666 2.893207 2.340572-23.291937c14.336-142.189714 132.502349-249.417143 274.854603-249.417143 116.475937 0 221.005206 74.280635 260.112254 184.807619l7.395555 20.837587 21.065143-6.696634c17.879365-5.688889 36.376381-8.549587 55.003429-8.549588 100.124444 0 181.573079 81.903746 181.573079 182.580826zM198.851048 781.978413l57.734095 104.886857c13.409524 24.315937 50.842413 2.600635 37.416635-21.764064l-57.766603-104.886857c-13.409524-24.315937-50.809905-2.600635-37.384127 21.764064z m214.552381 0c19.277206 34.946032 38.521905 69.924571 57.766603 104.886857 13.409524 24.315937 50.842413 2.600635 37.416635-21.764064l-57.766604-104.886857c-13.39327-24.315937-50.809905-2.600635-37.40038 21.764064z m225.556317 0l57.766603 104.886857c13.409524 24.315937 50.809905 2.600635 37.416635-21.764064l-57.766603-104.886857c-13.409524-24.315937-50.826159-2.600635-37.416635 21.764064z m217.965714 0c19.277206 34.946032 38.521905 69.924571 57.782857 104.886857 13.39327 24.315937 50.809905 2.600635 37.400381-21.764064l-57.766603-104.886857c-13.39327-24.315937-50.826159-2.600635-37.400381 21.764064zM375.206603 905.833651l57.734095 104.886857c13.409524 24.33219 50.842413 2.616889 37.416635-21.74781a259755.804444 259755.804444 0 0 0-57.766603-104.886857c-13.377016-24.33219-50.809905-2.600635-37.384127 21.74781z m214.552381-0.065016l57.750349 104.886857c13.409524 24.348444 50.809905 2.616889 37.416635-21.747809l-57.766603-104.886858c-13.409524-24.33219-50.842413-2.600635-37.416635 21.74781z m218.859683-8.647111l57.750349 104.886857c13.39327 24.33219 50.826159 2.600635 37.400381-21.74781l-57.766603-104.886857c-13.39327-24.33219-50.809905-2.616889-37.384127 21.74781z" fill="#333330" p-id="13250"></path></svg>