<?xml version="1.0" standalone="no"?><!DOCTYPE svg PUBLIC "-//W3C//DTD SVG 1.1//EN" "http://www.w3.org/Graphics/SVG/1.1/DTD/svg11.dtd"><svg t="1503553347051" class="icon" style="" viewBox="0 0 1024 1024" version="1.1" xmlns="http://www.w3.org/2000/svg" p-id="1041" xmlns:xlink="http://www.w3.org/1999/xlink" width="32" height="32"><defs><style type="text/css"></style></defs><path d="M864 544v-64h128v64H864zM738.272 240.48l90.496-90.528 45.248 45.248-90.496 90.528-45.248-45.248zM512 768c-141.376 0-256-114.624-256-256s114.624-256 256-256 256 114.624 256 256-114.656 256-256 256z m0-448.416c-106.272 0-192.416 86.144-192.416 192.416 0 106.272 86.144 192.416 192.416 192.416 106.272 0 192.416-86.144 192.416-192.416 0-106.272-86.144-192.416-192.416-192.416zM480 32h64v128h-64V32zM149.952 195.2l45.248-45.248 90.496 90.528-45.248 45.248-90.496-90.528zM160 544H32v-64h128v64z m125.696 239.52L195.2 874.016l-45.248-45.248 90.496-90.528 45.248 45.28zM544 992h-64V864h64v128z m330.016-163.232l-45.248 45.248-90.496-90.528 45.248-45.248 90.496 90.528z" fill="#fff" p-id="1042"></path></svg>