<?xml version="1.0" standalone="no"?><!DOCTYPE svg PUBLIC "-//W3C//DTD SVG 1.1//EN" "http://www.w3.org/Graphics/SVG/1.1/DTD/svg11.dtd"><svg t="1503557620571" class="icon" style="" viewBox="0 0 1024 1024" version="1.1" xmlns="http://www.w3.org/2000/svg" p-id="15944" xmlns:xlink="http://www.w3.org/1999/xlink" width="32" height="32"><defs><style type="text/css"></style></defs><path d="M962 460.077c0 104.989-85.431 190.385-190.385 190.385h-132.507c-19.143 0-34.615-15.473-34.615-34.615s15.473-34.615 34.615-34.615h132.507c66.807 0 121.154-54.381 121.154-121.154 0-61.65-46.593-113.089-108.346-119.7-16.546-1.765-29.493-15.023-30.843-31.604-6.507-80.169-74.631-142.927-155.043-142.927-59.539 0-114.681 34.823-140.435 88.754-7.027 14.711-23.4 22.465-39.254 18.761-10.315-2.493-19.454-3.669-28.004-3.669-62.065 0-113.573 46.904-119.769 109.143-0.935 9.45-5.711 18.104-13.223 23.919-7.477 5.815-17.031 8.239-26.446 6.889-4.5-0.693-9-1.489-13.639-1.489-47.7 0-86.539 38.804-86.539 86.539s38.839 86.539 86.539 86.539h111.704c19.107 0 34.615 15.473 34.615 34.615s-15.507 34.615-34.615 34.615h-111.704c-85.881 0-155.769-69.923-155.769-155.769 0-82.731 64.8-150.577 146.319-155.493 22.535-81.035 95.989-138.739 182.527-138.739 5.815 0 11.7 0.311 17.723 0.935 40.881-64.385 112.846-104.781 189.969-104.781 107.1 0 199.073 77.054 220.223 179.757 83.319 21.081 143.239 95.815 143.239 183.704zM562.157 503.865c-16.407-9.589-37.696-3.981-47.319 12.531l-185.193 318.739c-9.589 16.511-3.981 37.661 12.531 47.25 5.469 3.185 11.457 4.743 17.343 4.743 11.943 0 23.539-6.161 29.977-17.239l185.157-318.704c9.693-16.511 4.050-37.731-12.496-47.319zM831.985 787.711h-60.543l42.785-42.785c6.993-7.027 6.993-18.381 0-25.339-7.027-6.957-18.311-6.957-25.339 0l-42.819 42.819v-60.611c0-9.865-7.996-17.931-17.931-17.931s-17.931 8.031-17.931 17.931v60.611l-42.819-42.819c-7.027-6.957-18.311-6.957-25.339 0-6.993 6.957-6.993 18.311 0 25.339l42.785 42.785h-60.543c-9.9 0-17.931 8.031-17.931 17.931 0 9.935 7.996 17.931 17.931 17.931h60.611l-42.854 42.854c-6.993 6.957-6.993 18.311 0 25.339 3.531 3.461 8.065 5.193 12.669 5.193s9.173-1.765 12.669-5.193l42.819-42.819v60.543c0 9.935 7.996 17.931 17.931 17.931s17.931-7.961 17.931-17.931v-60.543l42.819 42.819c3.531 3.461 8.065 5.193 12.669 5.193s9.173-1.765 12.669-5.193c6.993-7.027 6.993-18.381 0-25.339l-42.854-42.889h60.611c9.9 0 17.931-7.961 17.931-17.931 0-9.865-8.031-17.896-17.931-17.896zM235.007 805.677h-27.45l19.419-19.419c6.75-6.75 6.75-17.723 0-24.473s-17.723-6.75-24.473 0l-19.419 19.419v-27.45c0-9.589-7.754-17.307-17.307-17.307s-17.307 7.719-17.307 17.307v27.45l-19.419-19.419c-6.75-6.75-17.723-6.75-24.473 0s-6.75 17.723 0 24.473l19.419 19.419h-27.45c-9.554 0-17.307 7.719-17.307 17.307 0 9.519 7.754 17.307 17.307 17.307h27.45l-19.419 19.419c-6.75 6.75-6.75 17.723 0 24.473 3.393 3.393 7.823 5.054 12.254 5.054s8.861-1.696 12.254-5.054l19.419-19.419v27.45c0 9.519 7.754 17.307 17.307 17.307s17.307-7.789 17.307-17.307v-27.45l19.419 19.419c3.393 3.393 7.823 5.054 12.254 5.054s8.861-1.696 12.254-5.054c6.75-6.75 6.75-17.723 0-24.473l-19.419-19.419h27.45c9.554 0 17.307-7.789 17.307-17.307-0.069-9.589-7.823-17.307-17.377-17.307z" fill="#ffffff" p-id="15945"></path></svg>