<?xml version="1.0" standalone="no"?><!DOCTYPE svg PUBLIC "-//W3C//DTD SVG 1.1//EN" "http://www.w3.org/Graphics/SVG/1.1/DTD/svg11.dtd"><svg t="1503557247428" class="icon" style="" viewBox="0 0 1024 1024" version="1.1" xmlns="http://www.w3.org/2000/svg" p-id="12480" xmlns:xlink="http://www.w3.org/1999/xlink" width="32" height="32"><defs><style type="text/css"></style></defs><path d="M831.616 603.52c-12.608 0-23.104-19.52-23.104-32.256 0-12.608 9.28-26.24 21.76-27.52 83.008-8.32 133.888-50.56 133.888-131.328s-52.992-137.088-133.76-137.088L809.6 275.328c-12.736 0-32.64-11.904-32.64-24.576L776.96 229.888c0-95.872-71.232-169.6-167.232-169.6-29.12 0-52.736 4.928-78.016 18.816C520.576 85.312 505.472 70.4 499.392 59.264 493.312 48.128 497.408 34.24 508.608 28.16c32-17.6 68.544-26.88 105.408-26.88 120.512 0 218.624 97.408 219.776 217.664C938.88 220.16 1024 305.984 1024 411.2 1024 517.312 937.728 603.52 831.616 603.52L831.616 603.52zM830.272 600.128" p-id="12481" fill="#ffffff"></path><path d="M627.648 662.656 192.256 662.656C86.208 662.656 0 576.256 0 470.272 0 364.928 85.12 279.04 190.144 277.888c1.152-120.192 99.328-217.6 219.904-217.6 120.448 0 218.624 97.408 219.712 217.6 105.024 1.152 190.272 86.976 190.272 192.384C820.032 576.256 733.76 662.656 627.648 662.656L627.648 662.656zM200.512 325.248c-77.632 0-140.864 63.232-140.864 140.928 0 77.568 63.168 140.736 140.864 140.736l418.816 0c77.76 0 140.864-63.168 140.864-140.736 0-77.696-63.104-140.928-140.864-140.928L599.36 325.248c-12.096 0-22.016-9.856-22.016-22.016L577.344 283.072c0-92.288-75.136-167.296-167.36-167.296-92.288 0-167.36 75.008-167.36 167.296l0 20.096c0 12.096-9.856 22.016-22.144 22.016L200.512 325.184 200.512 325.248zM200.512 325.248" p-id="12482" fill="#ffffff"></path><path d="M315.264 863.232c-1.792 0-3.712-0.256-5.568-0.64-12.032-3.264-19.264-15.36-16.192-27.52l28.736-111.488c3.072-12.032 15.296-19.136 27.328-16.128 12.032 3.136 19.264 15.232 16.128 27.264l-28.672 111.616C334.4 856.64 325.312 863.232 315.264 863.232L315.264 863.232 315.264 863.232zM315.264 863.232" p-id="12483" fill="#ffffff"></path><path d="M456.384 863.232c-1.92 0-3.776-0.256-5.696-0.64-12.032-3.264-19.264-15.36-16.192-27.52l28.736-111.488c3.072-12.032 15.296-19.136 27.328-16.128 12.032 3.136 19.328 15.232 16.128 27.264l-28.672 111.616C475.392 856.64 466.368 863.232 456.384 863.232L456.384 863.232 456.384 863.232zM456.384 863.232" p-id="12484" fill="#ffffff"></path><path d="M356.928 1022.72c-3.904 0-7.872-0.64-11.84-1.856-20.48-6.528-31.808-28.48-25.344-49.024l18.944-59.392c6.528-20.48 28.416-31.872 49.024-25.344 20.48 6.656 31.808 28.48 25.344 49.024l-18.88 59.392C388.8 1012.096 373.44 1022.72 356.928 1022.72L356.928 1022.72 356.928 1022.72zM356.928 1022.72" p-id="12485" fill="#ffffff"></path></svg>