<?xml version="1.0" standalone="no"?><!DOCTYPE svg PUBLIC "-//W3C//DTD SVG 1.1//EN" "http://www.w3.org/Graphics/SVG/1.1/DTD/svg11.dtd"><svg t="1503556771246" class="icon" style="" viewBox="0 0 1225 1024" version="1.1" xmlns="http://www.w3.org/2000/svg" p-id="2917" xmlns:xlink="http://www.w3.org/1999/xlink" width="38.28125" height="32"><defs><style type="text/css"></style></defs><path d="M956.836571 214.198857c-18.194286 0-36.352 1.938286-54.125714 5.778286C845.988571 88.027429 713.581714 0 570.331429 0 391.533714 0 242.834286 126.464 213.266286 302.134857c-0.420571-0.036571-0.841143-0.036571-1.243429-0.036571C95.122286 302.098286 0 397.659429 0 515.053714c0 117.394286 95.122286 212.900571 212.022857 212.900572h744.813714c140.982857 0 255.707429-115.254857 255.707429-256.877715 0-141.659429-114.724571-256.877714-255.707429-256.877714z m204.251429 256.877714c0 113.261714-91.611429 205.403429-204.251429 205.403429H212.022857c-88.557714 0-160.603429-72.411429-160.603428-161.426286 0-89.051429 72.045714-161.481143 160.603428-161.481143 5.906286 0 12.342857 0.475429 20.315429 1.426286l26.112 3.273143 2.651428-26.221714c16.109714-159.963429 149.065143-280.594286 309.211429-280.594286 131.017143 0 248.612571 83.565714 292.608 207.908571l8.32 23.460572 23.698286-7.552c20.114286-6.4 40.941714-9.6 61.897142-9.6 112.64 0 204.251429 92.123429 204.251429 205.403428z m-671.268571 454.582858l-33.462858 5.229714-26.971428-16.969143 26.953143-16.969143 33.481143 5.229714 1.097142-8.374857-23.68-3.712 36.662858-23.076571-3.876572-7.332572-36.681143 23.076572 8.923429-24.228572-7.222857-3.145142-12.580572 34.230857-26.331428 16.566857v-33.517714l20.900571-29.001143-6.107428-5.248-14.811429 20.534857v-46.171429h-7.753143v46.171429l-14.793143-20.534857-6.107428 5.248 20.900571 29.001143V906.971429l-27.574857-17.353143-12.598857-34.230857-7.204572 3.163428 8.905143 24.210286-36.662857-23.076572-3.894857 7.332572 36.681143 23.076571-23.698286 3.712 1.097143 8.374857 33.499429-5.229714 26.934857 16.969143-26.953143 16.969143-33.462857-5.229714-1.115429 8.374857 23.698286 3.712-36.681143 23.076571 3.894857 7.332572 36.662857-23.076572-8.905143 24.210286 7.204572 3.163428 12.598857-34.230857 27.574857-17.371428v34.194285l-20.900571 29.001143 6.107428 5.229715 14.793143-20.516572v43.465143h7.771429V968.777143l14.793143 20.516571 6.107428-5.229714-20.900571-29.001143v-33.389714l26.331428 16.566857 12.580572 34.230857 7.222857-3.163428-8.923429-24.210286 36.681143 23.076571 3.876572-7.332571-36.662858-23.076572 23.698286-3.712-1.097143-8.374857z m365.714285 0l-33.462857 5.229714-26.971428-16.969143 26.953142-16.969143 33.481143 5.229714 1.097143-8.374857-23.68-3.712 36.662857-23.076571-3.876571-7.332572-36.681143 23.076572 8.923429-24.228572-7.222858-3.145142-12.580571 34.230857-26.331429 16.566857v-33.517714l20.900572-29.001143-6.107429-5.248-14.811428 20.534857v-46.171429h-7.753143v46.171429l-14.793143-20.534857-6.107429 5.248 20.900572 29.001143V906.971429l-27.574857-17.353143-12.598857-34.230857-7.204572 3.163428 8.905143 24.210286-36.662857-23.076572-3.894857 7.332572 36.681143 23.076571-23.698286 3.712 1.097143 8.374857 33.499428-5.229714 26.934857 16.969143-26.953142 16.969143-33.462858-5.229714-1.115428 8.374857 23.698286 3.712-36.681143 23.076571 3.894857 7.332572 36.662857-23.076572-8.905143 24.210286 7.204572 3.163428 12.598857-34.230857 27.574857-17.371428v34.194285l-20.900572 29.001143 6.107429 5.229715 14.793143-20.516572v43.465143h7.771428V968.777143l14.793143 20.516571 6.107429-5.229714-20.900572-29.001143v-33.389714l26.331429 16.566857 12.580571 34.230857 7.222858-3.163428-8.923429-24.210286 36.681143 23.076571 3.876571-7.332571-36.662857-23.076572 23.698286-3.712-1.097143-8.374857z" fill="#ffffff" p-id="2918"></path></svg>