<?xml version="1.0" standalone="no"?><!DOCTYPE svg PUBLIC "-//W3C//DTD SVG 1.1//EN" "http://www.w3.org/Graphics/SVG/1.1/DTD/svg11.dtd"><svg t="1503557802175" class="icon" style="" viewBox="0 0 1024 1024" version="1.1" xmlns="http://www.w3.org/2000/svg" p-id="18632" xmlns:xlink="http://www.w3.org/1999/xlink" width="32" height="32"><defs><style type="text/css"></style></defs><path d="M535.41888 448.9728c-239.11936 0-433.12128-67.84-433.12128-151.54176 0-83.77344 194.00192-151.70048 433.12128-151.70048 14.54592 0 29.08672 0.32768 43.29984 0.82432v64.8704c-14.21312-0.41472-28.59008-0.6656-43.29984-0.6656-191.36 0-346.4448 38.74816-346.4448 86.67136 0 47.75936 155.0848 86.58944 346.4448 86.58944s346.53696-38.83008 346.53696-86.58944c0-27.42272-50.72896-51.80416-130.048-67.67104v-63.6928c129.55648 26.1888 216.64256 75.1872 216.64256 131.36896 0 83.69664-194.00192 151.53664-433.13152 151.53664zM665.30816 145.73568c-23.9616 0-43.2896-19.328-43.2896-43.29472s19.328-43.29472 43.2896-43.29472c23.96672 0 43.29984 19.328 43.29984 43.29472s-19.33824 43.29472-43.29984 43.29472zM708.608 925.55776c-23.80288 0-43.29984-19.50208-43.29984-43.29472 0-23.9616 19.49696-43.46368 43.29984-43.46368 23.95648 0 43.29472 19.5072 43.29472 43.46368 0 23.79264-19.33312 43.29472-43.29472 43.29472zM102.2976 557.29664c-23.79264 0-43.29472-19.41504-43.29472-43.29472s19.50208-43.38176 43.29472-43.38176c23.96672 0 43.38176 19.50208 43.38176 43.38176s-19.41504 43.29472-43.38176 43.29472zM881.95584 752.2048c-23.9616 0-43.29984-19.328-43.29984-43.29472s19.33824-43.29472 43.29984-43.29472c23.79264 0 43.29984 19.328 43.29984 43.29472s-19.5072 43.29472-43.29984 43.29472zM147.00032 905.23136c-23.87968 0-43.29472-19.50208-43.29472-43.29984 0-23.95136 19.41504-43.2896 43.29472-43.2896s43.37664 19.33312 43.37664 43.2896c0.00512 23.79776-19.49696 43.29984-43.37664 43.29984zM208.96768 570.27072l23.30112-56.2688c162.44224 67.1744 483.77344 46.5152 604.07296-6.94272 24.6272-10.9056 40.82176-23.21408 45.60384-36.43392l57.34912 20.49536c-10.57792 29.57312-36.19328 52.9664-78.17216 71.63392-142.59712 63.20128-478.22336 79.39584-652.15488 7.51616zM267.21792 762.78784l30.06976-52.8896c70.4 39.99744 376.12032 31.56992 432.96256-22.63552l42.13248 44.12416c-83.11296 79.1552-419.23072 80.14336-505.1648 31.40096zM225.24416 936.46336l30.08-52.88448c70.48192 40.00256 236.96384 25.28256 281.4208 0l30.23872 52.88448c-64.11264 36.52096-253.4912 50.07872-341.73952 0z" fill="#333330" p-id="18633"></path></svg>