<?xml version="1.0" standalone="no"?><!DOCTYPE svg PUBLIC "-//W3C//DTD SVG 1.1//EN" "http://www.w3.org/Graphics/SVG/1.1/DTD/svg11.dtd"><svg t="1503557770163" class="icon" style="" viewBox="0 0 1024 1024" version="1.1" xmlns="http://www.w3.org/2000/svg" p-id="18100" xmlns:xlink="http://www.w3.org/1999/xlink" width="32" height="32"><defs><style type="text/css"></style></defs><path d="M544.488 269.584s61.232-59.184 151.032-64.856c85.944-5.672 174.16 24.264 188.448 112.024 7.256 44.448-21.088 88.896-72.568 128.576 32.2 3.632 78.24 16.104 80.504 58.28 2.72 57.824-30.84 100.456-81.864 131.752 19.952 8.392 45.584 26.76 48.984 65.536 13.376 155.112-358.072 153.072-358.072 153.072 115.88-15.872 259.88-56.464 262.6-128.128 1.36-34.92-9.976-51.024-22-58.28-153.752 56.696-370.768 54.648-370.768 54.648 192.072-26.536 396.4-93.656 393.672-169.848-0.904-27.664-0.904-33.56-15.192-46.032-4.536-4.08-12.248-7.712-20.408-10.432-142.864 70.528-359.208 112.024-543.12 81.408 216.344 2.72 534.048-90.48 541.304-219.512 2.72-47.168-42.408-86.856-99.776-88.216-57.376-1.584-82.776 0.008-82.776 0.008zM330.416 224c15.648 0 28.344-12.928 28.344-28.344a28.352 28.352 0 0 0-56.688 0c0 15.416 12.696 28.344 28.344 28.344z m161.24-0.224a28.352 28.352 0 0 0 0-56.688 28.352 28.352 0 0 0 0 56.688z m0 158.968a28.352 28.352 0 0 0 0-56.688c-15.424 0-28.344 12.696-28.344 28.344s12.92 28.344 28.344 28.344zM339.72 476.4c15.648 0 28.344-12.928 28.344-28.344a28.352 28.352 0 0 0-28.344-28.344c-15.424 0-28.344 12.696-28.344 28.344-0.008 15.416 12.92 28.344 28.344 28.344zM217.944 387.728a28.352 28.352 0 0 0 0-56.688 28.352 28.352 0 0 0 0 56.688z m47.392 329.272a28.352 28.352 0 0 0 0-56.688 28.352 28.352 0 0 0 0 56.688z m182.552 107.04a28.352 28.352 0 0 0 0-56.688c-15.424 0-28.344 12.696-28.344 28.344 0 15.64 12.92 28.344 28.344 28.344z m36.512-157.384a28.352 28.352 0 0 0 0-56.688 28.352 28.352 0 0 0 0 56.688z" fill="#333330" p-id="18101"></path></svg>