<?xml version="1.0" standalone="no"?><!DOCTYPE svg PUBLIC "-//W3C//DTD SVG 1.1//EN" "http://www.w3.org/Graphics/SVG/1.1/DTD/svg11.dtd"><svg t="1503557324649" class="icon" style="" viewBox="0 0 1145 1024" version="1.1" xmlns="http://www.w3.org/2000/svg" p-id="13891" xmlns:xlink="http://www.w3.org/1999/xlink" width="35.78125" height="32"><defs><style type="text/css"></style></defs><path d="M246.027849 781.970862a15.701296 15.701296 0 0 1 7.070459 21.065093L147.090179 1014.979069a15.725677 15.725677 0 0 1-28.135552-14.067776l105.959367-211.943114a15.774439 15.774439 0 0 1 21.089474-6.997317z m176.761483 0a15.652534 15.652534 0 0 1 6.997317 21.065093l-105.934986 211.943114a15.79882 15.79882 0 0 1-21.089473 7.021698 15.750058 15.750058 0 0 1-7.046079-21.089474l105.959367-211.943114a15.774439 15.774439 0 0 1 21.089474-6.997317z m176.712723 0a15.701296 15.701296 0 0 1 7.046078 21.065093l-105.959367 211.943114a15.750058 15.750058 0 0 1-21.089473 7.021698 15.750058 15.750058 0 0 1-7.07046-21.089474l105.983748-211.943114a15.774439 15.774439 0 0 1 21.089474-6.997317z m176.737103 0a15.652534 15.652534 0 0 1 6.997316 21.065093L677.301488 1014.979069a15.79882 15.79882 0 0 1-21.089473 7.021698 15.725677 15.725677 0 0 1-7.046079-21.089474l105.983748-211.943114a15.774439 15.774439 0 0 1 21.089474-6.997317z m176.688341 0a15.701296 15.701296 0 0 1 7.070459 21.065093l-105.983748 211.943114a15.750058 15.750058 0 0 1-21.089473 7.021698 15.750058 15.750058 0 0 1-7.046079-21.089474l105.959367-211.943114a15.774439 15.774439 0 0 1 21.089474-6.997317z m169.739786 0a15.701296 15.701296 0 0 1 7.021698 21.065093L1023.753997 1014.979069a15.750058 15.750058 0 0 1-21.089474 7.021698 15.750058 15.750058 0 0 1-7.046078-21.089474l105.983747-211.943114a15.774439 15.774439 0 0 1 21.089474-6.997317zM383.365426 373.907834v-3.413326c0-145.84651 118.661813-264.532703 264.483942-264.532703a262.826041 262.826041 0 0 1 257.974243 207.140078 182.905469 182.905469 0 0 1 29.939738-2.511232c105.618034 0 191.585068 85.942653 191.585068 191.633829 0 105.642415-85.967033 191.585068-191.682591 191.585068H384.218758a160.133714 160.133714 0 0 1-159.938667-159.938667 160.182476 160.182476 0 0 1 159.085335-159.963047z m0.853332 288.474741h540.670712c3.608372 0 7.36303 0 10.849498 0.390095v-0.390095a160.328761 160.328761 0 0 0 160.182476-160.182475 160.328761 160.328761 0 0 0-160.182476-160.158095c-12.483018 0-25.478035 1.657901-38.643717 4.876179a15.652534 15.652534 0 0 1-19.309669-12.79997 231.667258 231.667258 0 0 0-229.936214-196.705055c-128.487313 0-233.08135 104.545275-233.08135 233.081349 0 6.339033 0.438856 12.556161 0.975236 18.724527a15.603772 15.603772 0 0 1-4.705513 12.556161 15.847581 15.847581 0 0 1-12.678065 4.388561 128.657979 128.657979 0 0 0-142.628232 127.707124 128.657979 128.657979 0 0 0 128.487314 128.511694zM191.634073 204.655665c9.80112 0 19.797286 0.80457 29.890977 2.46247A262.826041 262.826041 0 0 1 479.523674 0.002438c54.613203 0 107.032126 16.481485 151.57602 47.762172a15.725677 15.725677 0 0 1-18.041862 25.721844 231.569734 231.569734 0 0 0-133.534158-42.057043 231.691639 231.691639 0 0 0-229.960596 196.729436 15.603772 15.603772 0 0 1-19.285287 12.824351 162.157328 162.157328 0 0 0-38.643718-4.876179 160.328761 160.328761 0 0 0-160.158095 160.158095 159.621715 159.621715 0 0 0 143.481564 159.280382 15.725677 15.725677 0 0 1-1.584759 31.378211l-1.63352-0.048761A191.048688 191.048688 0 0 1 0.000244 396.265114c0-105.666796 85.967033-191.609449 191.633829-191.609449z" p-id="13892" fill="#333330"></path></svg>