<?xml version="1.0" standalone="no"?><!DOCTYPE svg PUBLIC "-//W3C//DTD SVG 1.1//EN" "http://www.w3.org/Graphics/SVG/1.1/DTD/svg11.dtd"><svg t="1503556423465" class="icon" style="" viewBox="0 0 1102 1024" version="1.1" xmlns="http://www.w3.org/2000/svg" p-id="15159" xmlns:xlink="http://www.w3.org/1999/xlink" width="34.4375" height="32"><defs><style type="text/css"></style></defs><path d="M764.398 282.055a159.119 159.119 0 0 0-33.771 3.617c-35.403-82.339-118.013-137.248-207.401-137.248-111.533 0-204.298 78.893-222.758 188.498l-0.787-0.011c-72.937 0-132.275 59.611-132.275 132.868 0 73.245 59.337 132.822 132.275 132.822h464.717c87.963 0 159.554-71.909 159.554-160.272 0-88.373-71.591-160.272-159.554-160.272z m127.438 160.271c0 70.678-57.157 128.156-127.437 128.156H299.67c-55.242 0-100.192-45.179-100.192-100.706 0-55.562 44.95-100.763 100.192-100.763 3.684 0 7.713 0.297 12.687 0.902l16.291 2.032 1.643-16.348c10.063-99.806 93.004-175.07 192.924-175.07 81.756 0 155.126 52.138 182.576 129.72l5.191 14.627 14.786-4.701a127.136 127.136 0 0 1 38.608-6.001c70.279 0 127.448 57.49 127.448 128.156z m-545.47 320.053c9.401 17.067 35.676 1.825 26.252-15.277l-40.547-73.622c-9.401-17.067-35.664-1.813-26.241 15.277l40.536 73.622zM312.14 865.06c9.401 17.067 35.676 1.825 26.252-15.277l-40.547-73.622c-9.401-17.067-35.664-1.813-26.241 15.277l40.536 73.622z m616.077 0c9.401 17.067 35.676 1.825 26.252-15.277l-40.547-73.622c-9.401-17.067-35.664-1.813-26.241 15.277l40.536 73.622zM916.81 705.335c9.4 17.067 35.676 1.825 26.252-15.277l-40.547-73.622c-9.401-17.067-35.664-1.813-26.241 15.277l40.535 73.622z m-695.462 0c9.412 17.067 35.687 1.825 26.262-15.277l-40.547-73.622c-9.401-17.067-35.664-1.813-26.241 15.277l40.524 73.622zM460.455 865.06c9.4 17.067 35.676 1.825 26.252-15.277l-40.547-73.622c-9.4-17.067-35.664-1.813-26.241 15.277l40.536 73.622z m159.724 0c9.401 17.067 35.676 1.825 26.252-15.277l-40.547-73.622c-9.4-17.067-35.664-1.813-26.241 15.277l40.535 73.622z m148.315 0c9.401 17.067 35.676 1.825 26.252-15.277l-40.547-73.622c-9.401-17.067-35.664-1.813-26.241 15.277l40.535 73.622zM452.536 690.994a90779.33 90779.33 0 0 1 40.535 73.622c9.413 17.067 35.687 1.825 26.262-15.277l-40.547-73.622c-9.4-17.067-35.664-1.825-26.252 15.277m158.312 0l40.547 73.622c9.412 17.067 35.664 1.825 26.262-15.277l-40.547-73.622c-9.412-17.067-35.676-1.825-26.262 15.277m153.006 0c13.52 24.529 27.016 49.081 40.547 73.622 9.401 17.067 35.664 1.825 26.252-15.277l-40.547-73.622c-9.401-17.067-35.676-1.825-26.252 15.277z" p-id="15160" fill="#333330"></path></svg>