<?xml version="1.0" standalone="no"?><!DOCTYPE svg PUBLIC "-//W3C//DTD SVG 1.1//EN" "http://www.w3.org/Graphics/SVG/1.1/DTD/svg11.dtd"><svg t="1503557360790" class="icon" style="" viewBox="0 0 1081 1024" version="1.1" xmlns="http://www.w3.org/2000/svg" p-id="14624" xmlns:xlink="http://www.w3.org/1999/xlink" width="33.78125" height="32"><defs><style type="text/css"></style></defs><path d="M1035.22891 403.985545c-25.009844-25.520249-57.165358-41.853209-92.1281-46.957258-6.507664-116.882741-93.659315-212.583676-206.714019-232.106667C693.129969 50.274891 612.35838 0 520.102679 0 423.636137 0 336.739688 55.378941 295.269283 140.616573c-18.502181-12.760125-40.577196-19.650592-63.54542-19.650592-61.886604 0-112.289097 50.402492-112.289097 112.289097 0 1.914019 0 3.700436 0.127602 5.614455C50.14729 257.754517 0 321.682741 0 395.181059c0 89.193271 72.73271 161.925981 162.053583 161.925981h16.715763c18.119377 69.67028 81.537196 121.221184 156.821931 121.221184h584.413707c42.618816 0 82.94081-16.715763 113.437508-47.08486 30.879502-30.624299 47.850467-71.201495 47.850468-114.330716 0-42.491215-16.33296-82.558006-46.06405-112.927103zM40.832399 395.30866c0-60.227788 44.915639-111.65109 104.377819-119.81757 5.742056-0.765607 10.846106-3.955639 14.163738-8.676884 3.190031-4.721246 4.338442-10.718505 2.934829-16.33296-1.403614-5.486854-2.04162-11.22891-2.04162-16.970966 0-39.428785 32.027913-71.456698 71.456698-71.456697 21.564611 0 41.853209 9.570093 55.506542 26.413457 4.721246 5.742056 12.122118 8.549283 19.395389 7.273272 7.273271-1.276012 13.27053-6.507664 15.694954-13.525733 28.965483-84.599626 108.461059-141.382181 197.781931-141.38218 66.863053 0 126.452835 31.517508 164.733209 80.516386-93.021308 3.190031-175.962118 57.803364-216.02891 140.488972-18.502181-12.632523-40.577196-19.650592-63.54542-19.650592-61.886604 0-112.289097 50.402492-112.289097 112.289097 0 1.914019 0 3.700436 0.127601 5.614455C223.684984 378.975701 173.537695 442.776324 173.537695 516.274642h-11.484112c-66.863053 0-121.221184-54.23053-121.221184-120.965982z m963.899813 206.586418c-22.968224 22.840623-53.082118 35.345545-84.727228 35.345545H335.591277c-66.863053 0-121.221184-54.23053-121.221184-120.965981 0-60.100187 44.915639-111.65109 104.37782-119.81757 5.742056-0.765607 10.846106-3.955639 14.163738-8.676885 3.190031-4.721246 4.338442-10.718505 2.934829-16.33296s-2.04162-11.22891-2.04162-16.970965c0-39.428785 32.027913-71.456698 71.456698-71.456698 21.564611 0 41.853209 9.697695 55.634143 26.158255 4.593645 5.869657 12.122118 8.549283 19.395389 7.273271 7.273271-1.403614 13.27053-6.507664 15.694954-13.525732 28.965483-84.472025 108.333458-141.126978 197.65433-141.126978 115.223925 0 209.010841 93.659315 209.010841 208.88324v4.338442c-0.255202 11.22891 8.676885 20.543801 19.905794 20.799003 31.645109 0.765607 61.248598 13.780935 83.451215 36.366356 22.202617 22.713022 34.452336 52.699315 34.452337 84.344423 0 32.155514-12.632523 62.397009-35.728349 85.365234zM303.563364 879.555389c-3.828037 0-7.656075-1.531215-10.590903-4.466043-5.869657-5.869657-5.869657-15.31215 0-21.181807l136.15053-136.15053c5.869657-5.869657 15.31215-5.869657 21.181807 0s5.869657 15.31215 0 21.181807L314.281869 875.089346c-3.06243 2.807227-6.890467 4.466044-10.718505 4.466043zM566.804735 879.555389c-3.828037 0-7.656075-1.531215-10.590903-4.466043-5.869657-5.869657-5.869657-15.31215 0-21.181807l136.150529-136.15053c5.869657-5.869657 15.31215-5.869657 21.181807 0s5.869657 15.31215 0 21.181807L577.52324 875.089346c-2.934829 2.807227-6.762866 4.466044-10.718505 4.466043zM700.913645 879.555389c-3.828037 0-7.656075-1.531215-10.590904-4.466043-5.869657-5.869657-5.869657-15.31215 0-21.181807l136.15053-136.15053c5.869657-5.869657 15.31215-5.869657 21.181807 0s5.869657 15.31215 0 21.181807L711.504548 875.089346c-2.934829 2.807227-6.762866 4.466044-10.590903 4.466043zM368.257196 1024c-3.828037 0-7.656075-1.531215-10.590903-4.466044-5.869657-5.869657-5.869657-15.31215 0-21.181806L493.816822 862.329221c5.869657-5.869657 15.31215-5.869657 21.181807 0s5.869657 15.31215 0 21.181807L378.8481 1019.533956c-2.934829 2.934829-6.762866 4.466044-10.590904 4.466044zM236.827913 1024c-3.828037 0-7.656075-1.531215-10.590904-4.466044-5.869657-5.869657-5.869657-15.31215 0-21.181806L362.387539 862.329221c5.869657-5.869657 15.31215-5.869657 21.181807 0s5.869657 15.31215 0 21.181807L247.418816 1019.533956c-2.934829 2.934829-6.762866 4.466044-10.590903 4.466044zM503.76972 1024c-3.828037 0-7.656075-1.531215-10.590904-4.466044-5.869657-5.869657-5.869657-15.31215 0-21.181806l136.15053-136.15053c5.869657-5.869657 15.31215-5.869657 21.181807 0s5.869657 15.31215 0 21.181807L514.488224 1019.533956c-3.06243 2.934829-6.890467 4.466044-10.718504 4.466044zM435.24785 879.555389c-3.828037 0-7.656075-1.531215-10.590903-4.466043-5.869657-5.869657-5.869657-15.31215 0-21.181807l136.15053-136.15053c5.869657-5.869657 15.31215-5.869657 21.181806 0s5.869657 15.31215 0 21.181807L445.838754 875.089346c-2.934829 2.807227-6.762866 4.466044-10.590904 4.466043z" p-id="14625" fill="#333330"></path></svg>