<?xml version="1.0" standalone="no"?><!DOCTYPE svg PUBLIC "-//W3C//DTD SVG 1.1//EN" "http://www.w3.org/Graphics/SVG/1.1/DTD/svg11.dtd"><svg t="1503557010550" class="icon" style="" viewBox="0 0 1024 1024" version="1.1" xmlns="http://www.w3.org/2000/svg" p-id="7434" xmlns:xlink="http://www.w3.org/1999/xlink" width="32" height="32"><defs><style type="text/css"></style></defs><path d="M112.364 195.992h15.526l-9.192 9.192c-1.92 1.92-1.92 5.012 0 6.91a4.8 4.8 0 0 0 3.466 1.45c1.248 0 2.506-0.468 3.454-1.45l16.126-16.102h19.418L126.664 230.5a4.894 4.894 0 0 0 0 6.932 4.894 4.894 0 0 0 3.456 1.408c1.258 0 2.516-0.468 3.466-1.408l34.498-34.508v19.408l-16.112 16.122a4.912 4.912 0 0 0 0 6.934c1.908 1.92 5.01 1.92 6.92 0l9.192-9.192v15.526a4.9 4.9 0 0 0 9.8 0v-15.526l9.204 9.192c0.948 0.958 2.198 1.428 3.456 1.428s2.504-0.47 3.464-1.428a4.912 4.912 0 0 0 0-6.934l-16.124-16.122v-19.408l34.508 34.508a4.91 4.91 0 0 0 3.456 1.408c1.258 0 2.506-0.468 3.466-1.408a4.894 4.894 0 0 0 0-6.932L184.812 195.992h19.418l16.104 16.102a4.832 4.832 0 0 0 3.474 1.45c1.248 0 2.506-0.468 3.456-1.45a4.868 4.868 0 0 0 0-6.91l-9.192-9.192h15.528a4.9 4.9 0 0 0 4.906-4.906 4.88 4.88 0 0 0-4.906-4.882h-15.528l9.192-9.214a4.868 4.868 0 0 0 0-6.91 4.888 4.888 0 0 0-6.93 0l-16.114 16.124h-19.408l34.498-34.508a4.92 4.92 0 0 0 0-6.954 4.958 4.958 0 0 0-6.92 0L177.882 179.272v-19.43l16.124-16.102a4.91 4.91 0 0 0 0-6.932 4.876 4.876 0 0 0-6.92 0L177.882 146v-15.526a4.9 4.9 0 1 0-9.8 0V146l-9.192-9.192a4.876 4.876 0 0 0-6.92 0 4.91 4.91 0 0 0 0 6.932l16.112 16.102v19.408L133.584 144.742a4.958 4.958 0 0 0-6.92 0 4.92 4.92 0 0 0 0 6.954l34.498 34.508h-19.418l-16.126-16.124a4.876 4.876 0 0 0-6.92 0 4.864 4.864 0 0 0 0 6.91l9.192 9.214h-15.526c-2.708 0-4.896 2.174-4.896 4.882s2.188 4.906 4.896 4.906zM294.222 508.886h-31.05l18.384-18.384a9.808 9.808 0 0 0 0-13.864 9.816 9.816 0 0 0-13.856 0l-32.236 32.248H196.64l69.006-69.016a9.776 9.776 0 0 0 0-13.84 9.808 9.808 0 0 0-13.852 0l-69.018 68.994v-38.816l32.248-32.248a9.8 9.8 0 0 0 0-13.862 9.804 9.804 0 0 0-13.852 0l-18.396 18.384v-31.032a9.794 9.794 0 1 0-19.588 0v31.032l-18.384-18.384a9.804 9.804 0 0 0-13.852 0 9.8 9.8 0 0 0 0 13.862l32.236 32.248v38.816l-69.006-68.994a9.808 9.808 0 0 0-13.852 0 9.796 9.796 0 0 0 0 13.84l69.006 69.016H110.498L78.26 476.638a9.796 9.796 0 0 0-13.84 13.864l18.372 18.384H51.74a9.792 9.792 0 0 0-9.788 9.81 9.792 9.792 0 0 0 9.788 9.792h31.064l-18.382 18.384a9.772 9.772 0 0 0 0 13.84c1.908 1.922 4.414 2.878 6.92 2.878s5.012-0.958 6.92-2.878l32.258-32.224h38.816l-69.006 68.996a9.82 9.82 0 0 0 0 13.86c1.92 1.922 4.426 2.862 6.932 2.862s5.01-0.94 6.92-2.862l69.006-69.016v38.84l-32.236 32.224a9.804 9.804 0 0 0 0 13.864 9.768 9.768 0 0 0 13.852 0l18.384-18.382v31.052c0 5.416 4.382 9.792 9.8 9.792s9.788-4.376 9.788-9.792v-31.052l18.396 18.382a9.726 9.726 0 0 0 6.93 2.86 9.72 9.72 0 0 0 6.92-2.86 9.804 9.804 0 0 0 0-13.864l-32.248-32.224v-38.84l69.018 69.016a9.696 9.696 0 0 0 6.918 2.862c2.508 0 5.012-0.94 6.934-2.862a9.8 9.8 0 0 0 0-13.86L196.64 528.486h38.836l32.224 32.224a9.772 9.772 0 0 0 13.856 0 9.78 9.78 0 0 0 0-13.84l-18.376-18.384h31.042c5.418 0 9.8-4.392 9.8-9.792a9.8 9.8 0 0 0-9.8-9.808zM789.384 217.832h15.526l-9.194 9.192a4.888 4.888 0 0 0 0 6.93 4.854 4.854 0 0 0 3.464 1.43c1.248 0 2.506-0.468 3.458-1.43l16.124-16.122h19.416l-34.494 34.486a4.92 4.92 0 0 0 0 6.954 4.92 4.92 0 0 0 3.458 1.408c1.256 0 2.504-0.47 3.462-1.408l34.496-34.508v19.408l-16.114 16.122a4.92 4.92 0 0 0 0 6.934 4.92 4.92 0 0 0 6.922 0l9.192-9.192v15.526c0 2.688 2.202 4.886 4.906 4.886s4.896-2.198 4.896-4.886v-15.526l9.202 9.192c0.954 0.958 2.2 1.428 3.458 1.428a4.86 4.86 0 0 0 3.462-1.428 4.916 4.916 0 0 0 0-6.934l-16.124-16.122v-19.408l34.508 34.508a4.91 4.91 0 0 0 3.456 1.408c1.258 0 2.504-0.47 3.462-1.408a4.914 4.914 0 0 0 0-6.954l-34.496-34.486h19.408l16.124 16.122c0.96 0.962 2.208 1.43 3.464 1.43 1.248 0 2.506-0.468 3.458-1.43a4.892 4.892 0 0 0 0-6.93l-9.194-9.192h15.526a4.904 4.904 0 0 0 4.906-4.904 4.886 4.886 0 0 0-4.906-4.884h-15.526l9.194-9.214a4.868 4.868 0 0 0 0-6.91 4.88 4.88 0 0 0-6.922 0l-16.124 16.124h-19.408l34.496-34.508a4.888 4.888 0 0 0 0-6.932 4.914 4.914 0 0 0-6.918 0l-34.508 34.508V181.68l16.124-16.102a4.912 4.912 0 0 0 0-6.932 4.88 4.88 0 0 0-6.922 0l-9.202 9.192v-15.548c0-2.686-2.192-4.882-4.896-4.882s-4.906 2.196-4.906 4.882v15.548l-9.192-9.192a4.88 4.88 0 0 0-6.922 0 4.916 4.916 0 0 0 0 6.932l16.114 16.102v19.408l-34.496-34.486a4.916 4.916 0 0 0-6.92 0 4.894 4.894 0 0 0 0 6.932l34.494 34.508h-19.416l-16.124-16.124a4.88 4.88 0 0 0-6.924 0 4.864 4.864 0 0 0 0 6.91l9.196 9.214h-15.528a4.878 4.878 0 0 0-4.894 4.884 4.9 4.9 0 0 0 4.898 4.906zM971.244 508.886h-31.054l18.384-18.384a9.804 9.804 0 0 0 0-13.864 9.814 9.814 0 0 0-13.854 0l-32.234 32.248H873.66l69.002-69.016a9.776 9.776 0 0 0 0-13.84 9.808 9.808 0 0 0-13.852 0l-69.016 68.994v-38.816l32.244-32.248a9.798 9.798 0 0 0-13.85-13.862l-18.394 18.384v-31.032a9.798 9.798 0 0 0-9.792-9.812 9.8 9.8 0 0 0-9.796 9.812v31.032l-18.384-18.384a9.804 9.804 0 0 0-13.852 0 9.8 9.8 0 0 0 0 13.862l32.236 32.248v38.816L771.2 426.03a9.806 9.806 0 0 0-13.85 0 9.786 9.786 0 0 0 0 13.84l69.004 69.016h-38.84l-32.234-32.248a9.8 9.8 0 0 0-13.842 0 9.804 9.804 0 0 0 0 13.864l18.376 18.384H728.76a9.794 9.794 0 0 0-9.792 9.81 9.794 9.794 0 0 0 9.792 9.792h31.062l-18.382 18.384a9.776 9.776 0 0 0 0 13.84 9.7 9.7 0 0 0 6.922 2.878 9.73 9.73 0 0 0 6.92-2.878l32.258-32.224h38.816l-69.004 68.996a9.81 9.81 0 0 0 0 13.86 9.734 9.734 0 0 0 6.93 2.862c2.504 0 5.016-0.94 6.92-2.862l69.006-69.016v38.84l-32.234 32.224a9.804 9.804 0 0 0 0 13.864 9.768 9.768 0 0 0 13.852 0l18.382-18.382v31.052a9.786 9.786 0 0 0 9.798 9.792 9.78 9.78 0 0 0 9.79-9.792v-31.052l18.396 18.382a9.704 9.704 0 0 0 6.93 2.86 9.72 9.72 0 0 0 6.92-2.86 9.8 9.8 0 0 0 0-13.864l-32.246-32.224v-38.84l69.018 69.016a9.702 9.702 0 0 0 6.922 2.862c2.504 0 5.022-0.94 6.93-2.862a9.8 9.8 0 0 0 0-13.86l-69.002-68.996h38.834l32.226 32.224a9.724 9.724 0 0 0 6.932 2.878 9.73 9.73 0 0 0 6.922-2.878 9.776 9.776 0 0 0 0-13.84l-18.376-18.384h31.042a9.794 9.794 0 0 0 9.794-9.792 9.796 9.796 0 0 0-9.794-9.81zM643.652 705.442H612.6l18.384-18.382a9.804 9.804 0 0 0 0-13.864 9.814 9.814 0 0 0-13.854 0l-32.248 32.246h-38.812l69.004-69.016c3.828-3.816 3.828-10.024 0-13.868a9.824 9.824 0 0 0-13.856 0l-69.016 69.02v-38.816l32.25-32.246a9.806 9.806 0 0 0 0-13.866 9.818 9.818 0 0 0-13.854 0l-18.396 18.384V594a9.792 9.792 0 1 0-19.588 0v31.034l-18.384-18.384a9.816 9.816 0 0 0-13.852 0 9.802 9.802 0 0 0 0 13.866l32.236 32.246v38.816l-69.008-69.02a9.804 9.804 0 0 0-13.84 0 9.808 9.808 0 0 0 0 13.868l68.996 69.016h-38.838l-32.238-32.246a9.808 9.808 0 0 0-13.85 0 9.822 9.822 0 0 0 0 13.864l18.384 18.382h-31.054a9.796 9.796 0 0 0-9.79 9.81 9.792 9.792 0 0 0 9.79 9.792h31.066l-18.396 18.382a9.794 9.794 0 0 0 0 13.84 9.74 9.74 0 0 0 6.93 2.878 9.716 9.716 0 0 0 6.92-2.878l32.26-32.222h38.816l-68.996 68.992a9.804 9.804 0 0 0 0 13.864 9.696 9.696 0 0 0 6.922 2.86 9.694 9.694 0 0 0 6.918-2.86l69.008-69.016v38.84l-32.236 32.222c-3.83 3.84-3.83 10.046 0 13.866s10.024 3.816 13.852 0l18.384-18.382v31.05a9.784 9.784 0 0 0 9.798 9.792 9.78 9.78 0 0 0 9.79-9.792v-31.05l18.396 18.382a9.74 9.74 0 0 0 6.932 2.876 9.754 9.754 0 0 0 6.922-2.876 9.806 9.806 0 0 0 0-13.866l-32.25-32.222v-38.84l69.016 69.016c1.91 1.922 4.414 2.86 6.922 2.86s5.024-0.938 6.934-2.86a9.804 9.804 0 0 0 0-13.864l-69.004-68.992h38.834l32.226 32.222a9.768 9.768 0 0 0 13.854 0 9.776 9.776 0 0 0 0-13.84l-18.376-18.382h31.042a9.794 9.794 0 0 0 9.796-9.792 9.794 9.794 0 0 0-9.794-9.81zM706.792 324.66h-47.228l27.958-28.172c5.822-5.864 5.822-15.358 0-21.222a14.8 14.8 0 0 0-21.06 0l-49.032 49.394h-59.044l104.942-105.762c5.822-5.866 5.822-15.358 0-21.222a14.78 14.78 0 0 0-21.072 0l-104.952 105.764v-59.506l49.034-49.416c5.82-5.866 5.82-15.376 0-21.242a14.804 14.804 0 0 0-21.06 0l-27.972 28.194v-47.6c0-8.296-6.664-15.014-14.894-15.014-8.234 0-14.898 6.718-14.898 15.014v47.582l-27.95-28.174a14.82 14.82 0 0 0-21.072 0c-5.822 5.866-5.822 15.376 0 21.242l49.02 49.416v59.482l-104.94-105.74a14.78 14.78 0 0 0-21.072 0c-5.812 5.864-5.812 15.356 0 21.222l104.954 105.762H427.38l-49.022-49.394a14.826 14.826 0 0 0-21.08 0c-5.814 5.864-5.814 15.358 0 21.222l27.97 28.172H338.02c-8.234 0-14.898 6.74-14.898 15.016 0 8.294 6.664 15.014 14.898 15.014h47.24l-27.98 28.196c-5.814 5.844-5.814 15.356 0 21.242a14.956 14.956 0 0 0 10.542 4.394 14.934 14.934 0 0 0 10.536-4.394l49.044-49.438h59.044l-104.954 105.784c-5.812 5.864-5.812 15.354 0 21.222a14.868 14.868 0 0 0 10.536 4.414 14.834 14.834 0 0 0 10.536-4.414l104.94-105.764v59.502l-49.02 49.438c-5.822 5.844-5.822 15.356 0 21.218a14.812 14.812 0 0 0 21.072 0l27.95-28.172v47.584c0 8.292 6.664 15.016 14.898 15.016 8.232 0 14.896-6.718 14.896-15.016V477.92l27.968 28.172a14.82 14.82 0 0 0 21.066 0c5.82-5.864 5.82-15.374 0-21.218l-49.034-49.438v-59.502l104.952 105.764a14.874 14.874 0 0 0 10.548 4.414 14.83 14.83 0 0 0 10.524-4.414c5.822-5.868 5.822-15.358 0-21.222l-104.954-105.784h59.066l49.02 49.416a14.824 14.824 0 0 0 21.066 0c5.822-5.864 5.822-15.376 0-21.244l-27.95-28.172h47.214c8.232 0 14.908-6.718 14.908-15.014 0.006-8.278-6.67-15.018-14.902-15.018z" fill="#ffffff" p-id="7435"></path></svg>