<?xml version="1.0" standalone="no"?><!DOCTYPE svg PUBLIC "-//W3C//DTD SVG 1.1//EN" "http://www.w3.org/Graphics/SVG/1.1/DTD/svg11.dtd"><svg t="1503557192557" class="icon" style="" viewBox="0 0 1024 1024" version="1.1" xmlns="http://www.w3.org/2000/svg" p-id="12077" xmlns:xlink="http://www.w3.org/1999/xlink" width="32" height="32"><defs><style type="text/css"></style></defs><path d="M601.8816 161.83296C601.8816 152.41216 594.235733 144.766293 584.814933 144.766293L187.741867 144.766293C178.304 144.766293 170.6752 152.41216 170.6752 161.83296 170.6752 171.25376 178.304 178.899627 187.741867 178.899627L584.814933 178.899627C594.235733 178.899627 601.8816 171.25376 601.8816 161.83296" p-id="12078" fill="#333330"></path><path d="M719.960747 240.5632C719.960747 231.1424 712.31488 223.496533 702.89408 223.496533L305.821013 223.496533C296.383147 223.496533 288.754347 231.1424 288.754347 240.5632 288.754347 249.984 296.383147 257.629867 305.821013 257.629867L702.89408 257.629867C712.31488 257.629867 719.960747 249.984 719.960747 240.5632" p-id="12079" fill="#333330"></path><path d="M823.606613 302.226773 443.600213 302.226773C434.162347 302.226773 426.533547 309.87264 426.533547 319.29344 426.533547 328.71424 434.162347 336.360107 443.600213 336.360107L823.606613 336.360107C833.027413 336.360107 840.67328 328.71424 840.67328 319.29344 840.67328 309.87264 833.027413 302.226773 823.606613 302.226773" p-id="12080" fill="#333330"></path><path d="M663.888213 415.08864C673.309013 415.08864 680.95488 407.442773 680.95488 398.021973 680.95488 388.601173 673.309013 380.955307 663.888213 380.955307L403.34848 380.955307C393.910613 380.955307 386.281813 388.601173 386.281813 398.021973 386.281813 407.442773 393.910613 415.08864 403.34848 415.08864L663.888213 415.08864Z" p-id="12081" fill="#333330"></path><path d="M716.245333 459.685547 455.7056 459.685547C446.267733 459.685547 438.638933 467.331413 438.638933 476.752213 438.638933 486.173013 446.267733 493.81888 455.7056 493.81888L716.245333 493.81888C725.666133 493.81888 733.312 486.173013 733.312 476.752213 733.312 467.331413 725.666133 459.685547 716.245333 459.685547" p-id="12082" fill="#333330"></path><path d="M677.563733 538.41408 417.024 538.41408C407.586133 538.41408 399.957333 546.059947 399.957333 555.480747 399.957333 564.901547 407.586133 572.547413 417.024 572.547413L677.563733 572.547413C686.984533 572.547413 694.6304 564.901547 694.6304 555.480747 694.6304 546.059947 686.984533 538.41408 677.563733 538.41408" p-id="12083" fill="#333330"></path><path d="M625.06496 617.14432 443.595093 617.14432C434.157227 617.14432 426.528427 624.790187 426.528427 634.210987 426.528427 643.631787 434.157227 651.277653 443.595093 651.277653L625.06496 651.277653C634.48576 651.277653 642.131627 643.631787 642.131627 634.210987 642.131627 624.790187 634.48576 617.14432 625.06496 617.14432" p-id="12084" fill="#333330"></path><path d="M543.890773 695.87456 413.620907 695.87456C404.18304 695.87456 396.55424 703.520427 396.55424 712.941227 396.55424 722.362027 404.18304 730.007893 413.620907 730.007893L543.890773 730.007893C553.311573 730.007893 560.95744 722.362027 560.95744 712.941227 560.95744 703.520427 553.311573 695.87456 543.890773 695.87456" p-id="12085" fill="#333330"></path><path d="M509.75744 774.6048 413.620907 774.6048C404.18304 774.6048 396.55424 782.250667 396.55424 791.671467 396.55424 801.092267 404.18304 808.738133 413.620907 808.738133L509.75744 808.738133C519.17824 808.738133 526.824107 801.092267 526.824107 791.671467 526.824107 782.250667 519.17824 774.6048 509.75744 774.6048" p-id="12086" fill="#333330"></path><path d="M489.03168 853.333333 413.61408 853.333333C404.19328 853.333333 396.547413 860.9792 396.547413 870.4 396.547413 879.8208 404.19328 887.466667 413.61408 887.466667L489.03168 887.466667C498.45248 887.466667 506.098347 879.8208 506.098347 870.4 506.098347 860.9792 498.45248 853.333333 489.03168 853.333333" p-id="12087" fill="#333330"></path></svg>