<?xml version="1.0" standalone="no"?><!DOCTYPE svg PUBLIC "-//W3C//DTD SVG 1.1//EN" "http://www.w3.org/Graphics/SVG/1.1/DTD/svg11.dtd"><svg t="1503556524154" class="icon" style="" viewBox="0 0 1102 1024" version="1.1" xmlns="http://www.w3.org/2000/svg" p-id="16627" xmlns:xlink="http://www.w3.org/1999/xlink" width="34.4375" height="32"><defs><style type="text/css"></style></defs><path d="M832.905846 194.481231c-15.690831 0-31.318646 1.669908-46.631384 4.993969C737.390277 85.779692 623.316677 9.956431 499.885292 9.956431c-154.0096 0-282.104123 108.937846-307.593846 260.285046l-1.087015-0.015754C90.490092 270.225723 8.554338 352.539569 8.554338 453.695015c0 101.139692 81.935754 183.406277 182.650093 183.406277H832.905846c121.462154 0 220.317538-99.296492 220.317539-221.31003 0-122.029292-98.855385-221.310031-220.317539-221.310031z m175.970462 221.310031c0 97.595077-78.926769 176.962954-175.970462 176.962953H191.188677c-76.280123 0-138.350277-62.385231-138.350277-139.0592 0-76.721231 62.070154-139.137969 138.350277-139.137969 5.088492 0 10.6496 0.4096 17.518277 1.244554l22.496492 2.804185 2.268554-22.575262c13.894892-137.814646 128.425354-241.742769 266.397538-241.742769 112.892062 0 214.205046 71.995077 252.1088 179.121231l7.168 20.19643 20.416985-6.490584c17.329231-5.513846 35.257108-8.286523 53.311015-8.286523 97.043692 0 175.986215 79.383631 175.986216 176.962954zM255.669169 857.733908c12.981169 23.567754 49.262277 2.520615 36.2496-21.0944l-55.989169-101.65957c-12.981169-23.567754-49.246523-2.504862-36.233846 21.0944l55.973415 101.65957zM208.407631 999.518523c12.981169 23.567754 49.262277 2.520615 36.2496-21.0944l-55.989169-101.659569c-12.981169-23.567754-49.246523-2.504862-36.233847 21.0944l55.973416 101.659569zM1059.115323 999.518523c12.981169 23.567754 49.262277 2.520615 36.2496-21.0944l-55.989169-101.659569c-12.981169-23.567754-49.246523-2.504862-36.233846 21.0944l55.973415 101.659569zM1043.361477 778.964677c12.981169 23.567754 49.262277 2.520615 36.2496-21.0944l-55.989169-101.659569c-12.981169-23.567754-49.246523-2.504862-36.233846 21.0944l55.973415 101.659569zM83.038523 778.964677c12.996923 23.567754 49.278031 2.520615 36.265354-21.0944l-55.989169-101.659569c-12.981169-23.567754-49.246523-2.504862-36.233846 21.0944l55.957661 101.659569zM413.207631 999.518523c12.981169 23.567754 49.262277 2.520615 36.2496-21.0944l-55.989169-101.659569c-12.981169-23.567754-49.246523-2.504862-36.233847 21.0944l55.973416 101.659569zM633.761477 999.518523c12.981169 23.567754 49.262277 2.520615 36.2496-21.0944l-55.989169-101.659569c-12.981169-23.567754-49.246523-2.504862-36.233846 21.0944l55.973415 101.659569zM838.561477 999.518523c12.981169 23.567754 49.262277 2.520615 36.2496-21.0944l-55.989169-101.659569c-12.981169-23.567754-49.246523-2.504862-36.233846 21.0944l55.973415 101.659569zM402.274462 759.162092c18.668308 33.870769 37.336615 67.773046 55.973415 101.65957 12.996923 23.567754 49.278031 2.520615 36.265354-21.0944l-55.989169-101.65957c-12.981169-23.567754-49.246523-2.520615-36.2496 21.0944M620.874831 759.162092l55.989169 101.65957c12.996923 23.567754 49.246523 2.520615 36.265354-21.0944l-55.989169-101.65957c-12.996923-23.567754-49.262277-2.520615-36.265354 21.0944M832.149662 759.162092c18.668308 33.870769 37.305108 67.773046 55.989169 101.65957 12.981169 23.567754 49.246523 2.520615 36.2496-21.0944l-55.989169-101.65957c-12.981169-23.567754-49.262277-2.520615-36.2496 21.0944" fill="#333330" p-id="16628"></path></svg>