<?xml version="1.0" standalone="no"?><!DOCTYPE svg PUBLIC "-//W3C//DTD SVG 1.1//EN" "http://www.w3.org/Graphics/SVG/1.1/DTD/svg11.dtd"><svg t="1503555836422" class="icon" style="" viewBox="0 0 1536 1024" version="1.1" xmlns="http://www.w3.org/2000/svg" p-id="8625" xmlns:xlink="http://www.w3.org/1999/xlink" width="48" height="32"><defs><style type="text/css"></style></defs><path d="M1458.362182 697.949091C1437.882182 605.044364 1377.861818 526.987636 1296.663273 482.513455 1261.242182 256.232727 1070.708364 81.687273 836.910545 70.958545 895.464727 26.624 968.215273 0 1047.342545 0 1236.293818 0 1389.800727 150.132364 1395.898182 337.501091 1477.445818 366.149818 1536 443.694545 1536 535.109818 1536 600.901818 1505.698909 659.525818 1458.362182 697.949091ZM1231.848727 529.477818C1327.988364 566.295273 1396.363636 659.153455 1396.363636 768.186182 1396.363636 908.706909 1282.978909 1022.673455 1142.690909 1023.883636L1142.690909 1024 254.161455 1024 254.161455 1023.906909C113.617455 1022.882909 0 913.92 0 779.566545 0 675.630545 68.119273 587.054545 164.002909 551.703273 163.584 546.210909 163.165091 540.695273 163.165091 535.086545 163.165091 419.490909 256.884364 325.771636 372.48 325.771636 402.013091 325.771636 430.056727 331.938909 455.540364 342.970182 528.826182 221.300364 661.876364 139.636364 814.336 139.636364 1035.962182 139.636364 1216.930909 311.761455 1231.848727 529.477818Z" p-id="8626" fill="#333330"></path></svg>