<?xml version="1.0" standalone="no"?><!DOCTYPE svg PUBLIC "-//W3C//DTD SVG 1.1//EN" "http://www.w3.org/Graphics/SVG/1.1/DTD/svg11.dtd"><svg t="1503556727990" class="icon" style="" viewBox="0 0 1024 1024" version="1.1" xmlns="http://www.w3.org/2000/svg" p-id="2147" xmlns:xlink="http://www.w3.org/1999/xlink" width="32" height="32"><defs><style type="text/css"></style></defs><path d="M410.112 226.304c5.12 5.12 11.264 7.168 17.92 7.168 6.656 0 12.8-2.56 17.92-7.168 9.728-9.728 9.728-26.112 0-35.84l-35.84-35.84c-9.728-9.728-26.112-9.728-35.84 0-9.728 9.728-9.728 26.112 0 35.84l35.84 35.84zM607.232 159.744c13.824 0 25.088-11.264 25.088-25.088v-50.688c0-13.824-11.264-25.088-25.088-25.088s-25.088 11.264-25.088 25.088v50.688c-0.512 13.824 10.752 25.088 25.088 25.088zM785.92 233.984c6.656 0 12.8-2.56 17.92-7.168l35.84-35.84c9.728-9.728 9.728-26.112 0-35.84-9.728-9.728-26.112-9.728-35.84 0l-35.84 35.84c-9.728 9.728-9.728 26.112 0 35.84 5.12 4.608 11.776 7.168 17.92 7.168zM910.848 362.496H860.16c-13.824 0-25.088 11.264-25.088 25.088s11.264 25.088 25.088 25.088h50.688c13.824 0 25.088-11.264 25.088-25.088s-10.752-25.088-25.088-25.088zM594.432 716.8h88.576c76.8 0 139.264-62.464 139.264-139.264 0-45.568-22.016-86.016-56.32-111.616 11.776-24.064 18.432-50.688 18.432-78.336 0-97.792-79.36-177.152-177.152-177.152-58.368 0-112.64 28.672-145.408 76.288-2.048 0-4.096-0.512-6.144-0.512-97.28 0-180.224 63.488-206.336 154.112-7.168-1.536-14.848-2.56-21.504-2.56-76.8 0-139.264 62.464-139.264 139.264s62.464 139.264 139.264 139.264h88.576m50.176 0.512h177.152m63.488-455.68c69.632 0 126.464 56.832 126.464 126.464 0 19.456-4.608 38.4-13.312 55.808-11.776-3.584-24.576-5.12-37.376-5.12-6.656 0-14.336 1.024-21.504 2.56-20.48-69.632-74.24-123.392-141.824-144.384 23.04-22.528 54.272-35.328 87.552-35.328z m75.776 404.992H226.816c-48.64 0-88.576-39.936-88.576-88.576s39.936-88.576 88.576-88.576c3.584 0 9.216 1.024 14.848 2.048v23.04c0 13.824 11.264 25.088 25.088 25.088s25.088-11.264 25.088-25.088v-40.96C306.176 394.24 374.272 336.896 455.168 336.896c80.896 0 148.48 57.344 162.304 136.704v40.96c0 13.824 11.264 25.088 25.088 25.088s25.088-11.264 25.088-25.088V491.52c6.144-1.024 11.776-2.048 15.36-2.048 48.64 0 88.576 39.936 88.576 88.576s-39.936 88.064-88.576 88.064z" fill="#ffffff" p-id="2148"></path><path d="M306.176 840.704c-4.096-7.168-13.824-9.728-20.992-5.632-7.168 4.096-9.728 13.824-5.632 20.992l7.68 13.312c3.072 5.12 8.192 7.68 13.312 7.68 2.56 0 5.12-0.512 7.68-2.048 7.168-4.096 9.728-13.824 5.632-20.992l-7.68-13.312zM267.776 774.144c-4.096-7.168-13.824-9.728-20.992-5.632-7.168 4.096-9.728 13.824-5.632 20.992l7.68 13.312c3.072 5.12 8.192 7.68 13.312 7.68 2.56 0 5.12-0.512 7.68-2.048 7.168-4.096 9.728-13.824 5.632-20.992l-7.68-13.312z" fill="#ffffff" p-id="2149"></path><path d="M285.184 808.448c2.56 1.536 5.12 2.048 7.68 2.048 5.12 0 10.24-2.56 13.312-7.68l7.68-13.312c4.096-7.168 1.536-16.896-5.632-20.992-7.168-4.096-16.896-1.536-20.992 5.632l-7.68 13.312c-4.608 7.168-2.048 16.896 5.632 20.992zM269.824 835.072c-7.168-4.096-16.896-1.536-20.992 5.632l-7.68 13.312c-4.096 7.168-1.536 16.896 5.632 20.992 2.56 1.536 5.12 2.048 7.68 2.048 5.12 0 10.24-2.56 13.312-7.68l7.68-13.312c4.096-7.168 1.536-16.896-5.632-20.992z" fill="#ffffff" p-id="2150"></path><path d="M262.144 821.76c0-8.704-6.656-15.36-15.36-15.36h-15.36c-8.704 0-15.36 6.656-15.36 15.36s6.656 15.36 15.36 15.36h15.36c8.192 0 15.36-6.656 15.36-15.36zM323.584 806.4h-15.36c-8.704 0-15.36 6.656-15.36 15.36s6.656 15.36 15.36 15.36h15.36c8.704 0 15.36-6.656 15.36-15.36s-7.168-15.36-15.36-15.36z" fill="#ffffff" p-id="2151"></path><path d="M483.84 929.28c-4.096-7.168-13.824-9.728-20.992-5.632-7.168 4.096-9.728 13.824-5.632 20.992l7.68 13.312c3.072 5.12 8.192 7.68 13.312 7.68 2.56 0 5.12-0.512 7.68-2.048 7.168-4.096 9.728-13.824 5.632-20.992l-7.68-13.312zM445.44 862.72c-4.096-7.168-13.824-9.728-20.992-5.632-7.168 4.096-9.728 13.824-5.632 20.992l7.68 13.312c3.072 5.12 8.192 7.68 13.312 7.68 2.56 0 5.12-0.512 7.68-2.048 7.168-4.096 9.728-13.824 5.632-20.992l-7.68-13.312z" fill="#ffffff" p-id="2152"></path><path d="M462.848 897.024c2.56 1.536 5.12 2.048 7.68 2.048 5.12 0 10.24-2.56 13.312-7.68l7.68-13.312c4.096-7.168 1.536-16.896-5.632-20.992-7.168-4.096-16.896-1.536-20.992 5.632l-7.68 13.312c-4.608 7.168-2.048 16.896 5.632 20.992zM447.488 923.648c-7.168-4.096-16.896-1.536-20.992 5.632l-7.68 13.312c-4.096 7.168-1.536 16.896 5.632 20.992 2.56 1.536 5.12 2.048 7.68 2.048 5.12 0 10.24-2.56 13.312-7.68l7.68-13.312c4.096-7.168 1.536-16.896-5.632-20.992z" fill="#ffffff" p-id="2153"></path><path d="M439.808 910.336c0-8.704-6.656-15.36-15.36-15.36h-15.36c-8.704 0-15.36 6.656-15.36 15.36s6.656 15.36 15.36 15.36h15.36c8.192 0 15.36-6.656 15.36-15.36zM501.248 894.976h-15.36c-8.704 0-15.36 6.656-15.36 15.36s6.656 15.36 15.36 15.36h15.36c8.704 0 15.36-6.656 15.36-15.36s-7.168-15.36-15.36-15.36z" fill="#ffffff" p-id="2154"></path><path d="M661.504 840.704c-4.096-7.168-13.824-9.728-20.992-5.632-7.168 4.096-9.728 13.824-5.632 20.992l7.68 13.312c3.072 5.12 8.192 7.68 13.312 7.68 2.56 0 5.12-0.512 7.68-2.048 7.168-4.096 9.728-13.824 5.632-20.992l-7.68-13.312zM623.104 774.144c-4.096-7.168-13.824-9.728-20.992-5.632-7.168 4.096-9.728 13.824-5.632 20.992l7.68 13.312c3.072 5.12 8.192 7.68 13.312 7.68 2.56 0 5.12-0.512 7.68-2.048 7.168-4.096 9.728-13.824 5.632-20.992l-7.68-13.312z" fill="#ffffff" p-id="2155"></path><path d="M640.512 808.448c2.56 1.536 5.12 2.048 7.68 2.048 5.12 0 10.24-2.56 13.312-7.68l7.68-13.312c4.096-7.168 1.536-16.896-5.632-20.992-7.168-4.096-16.896-1.536-20.992 5.632l-7.68 13.312c-4.608 7.168-2.048 16.896 5.632 20.992zM625.152 835.072c-7.168-4.096-16.896-1.536-20.992 5.632l-7.68 13.312c-4.096 7.168-1.536 16.896 5.632 20.992 2.56 1.536 5.12 2.048 7.68 2.048 5.12 0 10.24-2.56 13.312-7.68l7.68-13.312c4.096-7.168 1.536-16.896-5.632-20.992z" fill="#ffffff" p-id="2156"></path><path d="M617.472 821.76c0-8.704-6.656-15.36-15.36-15.36h-15.36c-8.704 0-15.36 6.656-15.36 15.36s6.656 15.36 15.36 15.36h15.36c8.192 0 15.36-6.656 15.36-15.36zM678.912 806.4h-15.36c-8.704 0-15.36 6.656-15.36 15.36s6.656 15.36 15.36 15.36h15.36c8.704 0 15.36-6.656 15.36-15.36s-7.168-15.36-15.36-15.36z" fill="#ffffff" p-id="2157"></path></svg>