<?xml version="1.0" standalone="no"?><!DOCTYPE svg PUBLIC "-//W3C//DTD SVG 1.1//EN" "http://www.w3.org/Graphics/SVG/1.1/DTD/svg11.dtd"><svg t="1503555604988" class="icon" style="" viewBox="0 0 1027 1024" version="1.1" xmlns="http://www.w3.org/2000/svg" p-id="8002" xmlns:xlink="http://www.w3.org/1999/xlink" width="32.09375" height="32"><defs><style type="text/css"></style></defs><path d="M785.06496 746.66496l2.13504-2.13504c121.6-29.86496 209.06496-110.93504 234.66496-211.2 12.8-57.6 0-104.53504-4.26496-123.73504-27.73504-108.8-123.73504-187.73504-236.8-198.4-10.66496 0-21.33504-2.13504-29.86496 0-51.2-93.86496-149.33504-151.46496-256-151.46496C352 59.73504 230.4 164.26496 206.93504 300.8 93.86496 311.46496 4.26496 407.46496 4.26496 524.8c-2.13504 121.6 96 221.86496 219.73504 221.86496H768m0-64H224c-87.46496 0-157.86496-72.53504-157.86496-157.86496 0-87.46496 70.4-160 157.86496-160h4.26496l34.13504 2.13504 2.13504-32c8.53504-119.46496 108.8-211.2 228.26496-211.2 89.6 0 170.66496 53.33504 209.06496 134.4l10.66496 21.33504 23.46496-2.13504c12.8-2.13504 23.46496-2.13504 38.4-2.13504 87.46496 8.53504 157.86496 68.26496 179.2 151.46496 4.26496 12.8 12.8 49.06496 2.13504 91.73504-17.06496 74.66496-78.93504 136.53504-172.8 162.13504" fill="#333330" p-id="8003"></path><path d="M471.46496 996.26496c-17.06496-6.4-25.6-23.46496-21.33504-40.53504l49.06496-151.46496c6.4-17.06496 23.46496-25.6 40.53504-21.33504 17.06496 6.4 25.6 23.46496 21.33504 40.53504l-49.06496 153.6c-6.4 17.07008-23.46496 25.6-40.53504 19.2z m149.33504 0c-17.06496-6.4-25.6-23.46496-21.33504-40.53504l49.06496-151.46496c6.4-17.06496 23.46496-25.6 40.53504-21.33504 17.06496 6.4 25.6 23.46496 21.33504 40.53504l-49.06496 153.6c-6.4 17.07008-23.47008 25.6-40.53504 19.2z m-298.66496 0c-17.06496-6.4-25.6-23.46496-21.33504-40.53504l49.06496-151.46496c6.4-17.06496 23.46496-25.6 40.53504-21.33504 17.06496 6.4 25.6 23.46496 21.33504 40.53504l-49.06496 153.6c-6.40512 17.07008-23.47008 25.6-40.53504 19.2z" fill="#333330" p-id="8004"></path></svg>