<?xml version="1.0" standalone="no"?><!DOCTYPE svg PUBLIC "-//W3C//DTD SVG 1.1//EN" "http://www.w3.org/Graphics/SVG/1.1/DTD/svg11.dtd"><svg t="1503555982628" class="icon" style="" viewBox="0 0 1024 1024" version="1.1" xmlns="http://www.w3.org/2000/svg" p-id="9321" xmlns:xlink="http://www.w3.org/1999/xlink" width="32" height="32"><defs><style type="text/css"></style></defs><path d="M807.552 360.768c4.032-60.416-13.632-115.712-51.712-161.28-51.072-61.184-136.512-99.2-222.976-99.2-131.52 0-245.184 89.92-273.408 212.48C151.232 315.328 64 401.536 64 507.136c0 40.576 13.248 78.336 35.648 109.696L135.36 581.12C121.664 559.36 113.664 534.08 113.664 507.136c0-79.808 67.648-144.768 150.656-144.768 4.48 0 8.96 0.256 13.376 0.64l23.488 2.048 3.264-23.296C320 232.448 418.24 149.952 532.864 149.952c72.128 0 142.976 31.168 184.896 81.344 34.752 41.6 47.552 93.952 37.12 151.488L748.352 418.56l35.712-6.912c4.864-0.96 10.048-1.408 15.424-1.408 45.312 0 110.784 35.392 110.784 99.456 0 51.968-28.608 97.088-71.616 121.856l12.8 49.28C916.096 649.28 960 584.768 960 509.632 960 423.552 882.688 364.736 807.552 360.768z" p-id="9322" fill="#333330"></path><path d="M437.696 312.832l-310.464 338.56 140.352 0 0 272.384 280.704-358.4L437.696 565.376 437.696 312.832zM446.336 615.104l-129.024 164.608L317.312 601.6 240.256 601.6l147.776-161.152 0 174.656L446.336 615.104z" p-id="9323" fill="#333330"></path><path d="M689.792 507.584c-12.864-4.672-27.136 2.176-31.68 15.104l-91.392 257.536c-4.544 12.864 2.176 27.136 15.104 31.744 2.752 0.896 5.568 1.344 8.32 1.344 10.176 0 19.84-6.4 23.36-16.512l91.392-257.536C709.568 526.4 702.784 512.192 689.792 507.584z" p-id="9324"></path><path d="M497.856 714.88c-12.672-5.12-27.2 1.024-32.32 13.76l-41.216 102.272c-5.12 12.736 1.088 27.264 13.76 32.384 3.072 1.28 6.208 1.728 9.344 1.728 9.792 0 19.136-5.888 23.04-15.488l41.216-102.272C516.8 734.528 510.656 720 497.856 714.88z" p-id="9325" fill="#333330"></path><path d="M790.4 559.232c-12.928-4.608-27.136 2.24-31.744 15.104l-91.328 257.472c-4.608 12.992 2.112 27.136 15.04 31.744 2.752 1.024 5.568 1.344 8.32 1.344 10.24 0 19.84-6.4 23.424-16.512l91.392-257.472C810.048 578.112 803.328 563.904 790.4 559.232z" p-id="9326" fill="#333330"></path></svg>