<?xml version="1.0" standalone="no"?><!DOCTYPE svg PUBLIC "-//W3C//DTD SVG 1.1//EN" "http://www.w3.org/Graphics/SVG/1.1/DTD/svg11.dtd"><svg t="1503556068475" class="icon" style="" viewBox="0 0 1024 1024" version="1.1" xmlns="http://www.w3.org/2000/svg" p-id="10463" xmlns:xlink="http://www.w3.org/1999/xlink" width="32" height="32"><defs><style type="text/css"></style></defs><path d="M451.264 933.76c-1.92 0-3.84-0.192-5.76-0.704-12.288-3.264-19.776-16-16.576-28.544l29.44-116.288c3.2-12.544 15.744-20.096 28.032-16.96 12.288 3.264 19.776 15.936 16.576 28.48l-29.44 116.416C470.848 926.72 461.504 933.76 451.264 933.76L451.264 933.76z" p-id="10464" fill="#333330"></path><path d="M588.096 933.76c-1.792 0-3.84-0.192-5.632-0.704-12.288-3.264-19.84-16-16.64-28.544l29.44-116.288c3.2-12.544 15.68-20.096 28.032-16.96 12.352 3.264 19.776 15.936 16.576 28.48l-29.44 116.416C607.872 926.72 598.528 933.76 588.096 933.76L588.096 933.76z" p-id="10465" fill="#333330"></path><path d="M334.72 771.392l-55.936 70.656c0 0-6.912 8.192 0.512 11.968 7.424 3.84 22.336 11.2 31.232 15.68 9.472 4.736 6.72 7.744 4.288 16-1.664 5.568-17.152 55.616-17.152 55.616s-3.072 15.424 9.792-1.024c12.032-15.168 51.136-65.344 54.336-69.248 4.352-6.784 8.512-12.352-0.96-15.68-10.24-3.84-24.576-8.96-31.936-12.032-4.48-1.792-4.992-4.672-3.904-8.896 4.032-14.464 13.44-47.744 16.768-60.48C345.984 757.248 334.72 771.392 334.72 771.392L334.72 771.392z" p-id="10466" fill="#333330"></path><path d="M170.816 805.76l31.104-19.648 19.2 31.68-31.104 19.648L170.816 805.76 170.816 805.76z" p-id="10467" fill="#333330"></path><path d="M190.4 850.112c-4.096 0-8.128-2.176-10.496-6.016l-19.2-31.68c-1.728-2.816-2.24-6.336-1.472-9.408 0.832-3.264 2.752-6.016 5.568-7.808l31.168-19.584c5.76-3.648 13.312-1.856 16.896 4.096l19.2 31.552c1.728 2.944 2.24 6.336 1.536 9.472-0.768 3.264-2.752 6.016-5.504 7.744l-31.168 19.584C194.88 849.472 192.64 850.112 190.4 850.112L190.4 850.112zM188.096 809.856l6.336 10.496 10.176-6.464-6.272-10.432L188.096 809.856 188.096 809.856z" p-id="10468" fill="#333330"></path><path d="M151.424 895.04l31.104-19.712 19.2 31.744L170.624 926.72 151.424 895.04 151.424 895.04z" p-id="10469" fill="#333330"></path><path d="M171.008 939.52c-4.096 0-8.128-2.112-10.496-6.016l-19.2-31.68c-1.728-2.88-2.304-6.336-1.536-9.408 0.768-3.392 2.752-6.144 5.504-7.808l31.168-19.712c2.752-1.536 6.08-2.24 9.344-1.344 3.2 0.768 5.888 2.816 7.68 5.568l19.2 31.68c3.52 5.952 1.792 13.632-4.032 17.28L177.408 937.6C175.488 938.88 173.248 939.52 171.008 939.52L171.008 939.52zM168.704 899.264l6.4 10.432 10.24-6.464L178.944 892.8 168.704 899.264 168.704 899.264z" p-id="10470" fill="#333330"></path><path d="M627.136 742.4 192.064 742.4C86.144 742.4 0 656.256 0 550.4c0-105.344 85.056-191.104 190.016-192.192C191.104 238.016 289.216 140.736 409.6 140.736c120.384 0 218.432 97.344 219.584 217.408 105.024 1.088 190.08 86.912 190.08 192.192C819.264 656.256 733.056 742.4 627.136 742.4L627.136 742.4zM200.32 405.376c-77.568 0-140.672 63.168-140.672 140.8 0 77.504 63.104 140.672 140.672 140.672l418.496 0c77.632 0 140.8-63.104 140.8-140.672 0-77.632-63.168-140.8-140.8-140.8L598.72 405.376c-12.096 0-22.016-9.856-22.016-21.952L576.704 363.328c0-92.16-75.008-167.104-167.168-167.104S242.432 271.104 242.432 363.328l0 20.096c0 12.096-9.856 21.952-22.08 21.952L200.32 405.376 200.32 405.376z" p-id="10471" fill="#333330"></path><path d="M831.872 677.888c-12.608 0-23.104-19.648-23.104-32.256s9.216-26.304 21.76-27.584c82.88-8.192 133.632-50.496 133.632-131.136 0-80.704-52.8-137.024-133.504-137.024l-20.736 0c-12.672 0-32.64-11.84-32.64-24.512L777.28 304.576c0-95.808-71.168-169.408-166.976-169.408-29.184 0-52.672 4.928-78.016 18.816C521.088 160 505.984 145.152 499.968 134.016 493.888 122.944 497.92 109.056 509.056 102.976 541.056 85.44 577.472 76.16 614.4 76.16c120.384 0 218.496 97.344 219.648 217.408C938.944 294.848 1024 380.544 1024 485.696 1024 591.744 937.792 677.888 831.872 677.888L831.872 677.888z" p-id="10472" fill="#333330"></path></svg>