<?xml version="1.0" standalone="no"?><!DOCTYPE svg PUBLIC "-//W3C//DTD SVG 1.1//EN" "http://www.w3.org/Graphics/SVG/1.1/DTD/svg11.dtd"><svg t="1503557860611" class="icon" style="" viewBox="0 0 1024 1024" version="1.1" xmlns="http://www.w3.org/2000/svg" p-id="19413" xmlns:xlink="http://www.w3.org/1999/xlink" width="32" height="32"><defs><style type="text/css"></style></defs><path d="M989.888 537.536l-156.032 0C826.24 508.224 799.744 486.4 768 486.4c-31.808 0-58.304 21.888-65.856 51.2L34.112 537.6C15.232 537.536 0 522.24 0 503.488c0-18.88 15.232-34.176 34.112-34.176l53.568 0c7.68 29.376 34.112 51.328 65.856 51.328 31.808 0 58.24-21.952 65.856-51.328l770.432 0C1008.768 469.312 1024 484.608 1024 503.488 1024 522.24 1008.768 537.536 989.888 537.536L989.888 537.536zM614.4 349.952C614.4 368.704 599.04 384 580.224 384S546.112 368.704 546.112 349.952c0-18.816 15.296-34.112 34.112-34.112S614.4 331.136 614.4 349.952L614.4 349.952zM665.536 230.464 426.688 230.464c37.696 0 68.224-30.592 68.224-68.288l170.624 0c18.944 0 34.112 15.296 34.112 34.048C699.712 215.04 684.48 230.464 665.536 230.464L665.536 230.464zM307.2 196.16c0-18.752 15.296-34.048 34.112-34.048L358.4 162.112c0 37.76 30.592 68.288 68.288 68.288L341.312 230.4C322.496 230.464 307.2 215.04 307.2 196.16L307.2 196.16zM426.688 196.16c-18.944 0-34.176-15.232-34.176-34.048C392.512 143.36 407.744 128 426.688 128c18.816 0 34.048 15.36 34.048 34.112C460.736 180.928 445.504 196.16 426.688 196.16L426.688 196.16zM187.776 452.16C187.776 471.04 172.416 486.4 153.536 486.4S119.424 471.04 119.424 452.16c0-18.752 15.232-34.112 34.112-34.112S187.776 433.408 187.776 452.16L187.776 452.16zM494.912 349.952C494.912 368.704 479.616 384 460.736 384L119.424 384C100.544 384 85.312 368.704 85.312 349.952c0-18.816 15.296-34.112 34.176-34.112l341.312 0C479.616 315.84 494.912 331.136 494.912 349.952L494.912 349.952zM102.4 776.576c0-18.816 15.296-34.112 34.112-34.112 18.88 0 34.112 15.296 34.112 34.112 0 18.88-15.232 34.048-34.112 34.048C117.696 810.624 102.4 795.456 102.4 776.576L102.4 776.576zM221.824 657.088c0-18.88 15.296-34.112 34.112-34.112 18.88 0 34.176 15.232 34.176 34.112 0 18.816-15.296 34.112-34.176 34.112C237.12 691.2 221.824 675.904 221.824 657.088L221.824 657.088zM34.112 776.576l34.112 0c0 37.76 30.592 68.224 68.224 68.224l-102.4 0C15.232 844.8 0 829.568 0 810.624 0 791.808 15.232 776.576 34.112 776.576L34.112 776.576zM204.8 776.576l665.6 0c18.816 0 34.048 15.232 34.048 34.048 0 18.944-15.232 34.176-34.048 34.176l-207.232 0c-7.616-29.376-34.048-51.2-65.856-51.2s-58.304 21.824-65.792 51.2L136.512 844.8C174.208 844.8 204.8 814.336 204.8 776.576L204.8 776.576zM597.312 827.776c18.88 0 34.176 15.232 34.176 34.112C631.488 880.704 616.192 896 597.312 896c-18.816 0-34.176-15.296-34.176-34.112C563.136 843.008 578.496 827.776 597.312 827.776L597.312 827.776zM733.824 554.688c0-18.88 15.296-34.048 34.176-34.048 18.816 0 34.112 15.168 34.112 34.048S786.816 588.736 768 588.736C749.12 588.736 733.824 573.568 733.824 554.688L733.824 554.688zM904.512 657.088c0 18.816-15.232 34.112-34.048 34.112L358.4 691.2c-18.88 0-34.112-15.296-34.112-34.112 0-18.88 15.232-34.112 34.112-34.112l512.064 0C889.28 622.912 904.512 638.208 904.512 657.088L904.512 657.088zM904.512 657.088" p-id="19414" fill="#333330"></path></svg>