<?xml version="1.0" standalone="no"?><!DOCTYPE svg PUBLIC "-//W3C//DTD SVG 1.1//EN" "http://www.w3.org/Graphics/SVG/1.1/DTD/svg11.dtd"><svg t="1503540483230" class="icon" style="" viewBox="0 0 1024 1024" version="1.1" xmlns="http://www.w3.org/2000/svg" p-id="1619" xmlns:xlink="http://www.w3.org/1999/xlink" width="34" height="34"><defs><style type="text/css"></style></defs><path d="M808.416 272a1.344 1.344 0 0 0-0.16-0.544A456.032 456.032 0 0 0 416 32C178.208 32 0 240 0 496c0 222.176 145.248 407.84 339.2 452.96a405.216 405.216 0 0 0 91.52 10.528 26.272 26.272 0 0 0 0-52.384 356.64 356.64 0 0 1-81.248-9.312C175.008 857.12 48.608 690.464 48.608 496c0-226.976 170.944-410.976 381.824-410.976a387.2 387.2 0 0 1 337.216 215.936 1.12 1.12 0 0 0 0.352 0.48 23.808 23.808 0 0 0 19.872 11.072 25.312 25.312 0 0 0 24.352-26.208 27.776 27.776 0 0 0-3.84-14.4z m-194.688 535.136L890.784 396.8a46.624 46.624 0 0 1 68.192-11.424l12.8 10.048a55.104 55.104 0 0 1 10.976 73.344l-276.896 410.304z m-9.6 14.112l92.032 71.936-111.136 60.608zM251.68 417.376a59.168 59.168 0 0 0 56.896-61.248 59.168 59.168 0 0 0-56.896-61.248 59.168 59.168 0 0 0-56.896 61.248 59.2 59.2 0 0 0 56.896 61.248z m341.216 0a59.168 59.168 0 0 0 56.896-61.248 57.056 57.056 0 1 0-113.792 0 59.2 59.2 0 0 0 56.896 61.248z m-388.672 184.64a238.848 238.848 0 0 0 226.208 182.624 238.752 238.752 0 0 0 226.048-181.792 35.488 35.488 0 0 0-22.016-43.424 32.224 32.224 0 0 0-40.352 23.712 172.8 172.8 0 0 1-163.68 131.52 172.96 172.96 0 0 1-163.84-132.16 32.192 32.192 0 0 0-40.288-23.808 35.424 35.424 0 0 0-22.112 43.36z m0 0" fill="#3592C1" p-id="1620"></path></svg>