<svg class="icon" style="" viewBox="0 0 1024 1024" version="1.1" xmlns="http://www.w3.org/2000/svg" p-id="2384" xmlns:xlink="http://www.w3.org/1999/xlink" width="32" height="32"><defs><style type="text/css"></style></defs><path d="M651.264 238.933333c-53.4528 0-103.150933 26.8288-135.850667 71.031467C482.7136 265.728 433.015467 238.933333 379.562667 238.933333 283.204267 238.933333 204.8 324.642133 204.8 430.011733c0 62.839467 28.091733 106.939733 50.653867 142.336 65.604267 102.912 230.5024 230.980267 237.499733 236.373334 6.724267 5.2224 14.609067 7.816533 22.459733 7.816533 7.850667 0 15.701333-2.594133 22.4256-7.816533 6.997333-5.393067 171.9296-133.461333 237.533867-236.3392 22.562133-35.4304 50.653867-79.530667 50.653867-142.370134C826.026667 324.608 747.6224 238.933333 651.264 238.933333z" p-id="2385" fill="#000000"  id="heart"></path></svg>