<?xml version="1.0" standalone="no"?><!DOCTYPE svg PUBLIC "-//W3C//DTD SVG 1.1//EN" "http://www.w3.org/Graphics/SVG/1.1/DTD/svg11.dtd"><svg t="1503543587293" class="icon" style="" viewBox="0 0 1024 1024" version="1.1" xmlns="http://www.w3.org/2000/svg" p-id="3801" xmlns:xlink="http://www.w3.org/1999/xlink" width="48" height="48"><defs><style type="text/css"></style></defs><path d="M959.5 513.9V517.6c-1 7.6-4.3 14.6-9.3 20.3-9.4 12.3-19.7 23.8-30 35.1a785.357 785.357 0 0 1-189.9 155c-44.2 25.9-92.2 44.6-142.3 55.4-54 10.9-109.8 10.1-163.5-2.5-94.8-26-181.8-74.8-253.5-142.1-35.6-30.4-68.1-64.1-97.1-100.9-12.5-15.1-12.5-37 0-52.1 9.4-12.2 19.6-23.8 29.9-35.1 54.8-61.3 118.9-113.6 189.9-155C337.9 270 386 251.3 436 240.5c54.1-10.9 109.8-10 163.5 2.5 94.8 26 181.8 74.8 253.4 142.1C888.5 415.5 921 449.3 950 486c5 5.7 8.3 12.7 9.3 20.3v5.6c0.1 0.6 0.2 1.4 0.2 2zM512 323.6c-99.9-7.7-187.1 67.1-194.7 167-7.7 99.9 67.1 187.1 167 194.7 99.9 7.7 187.1-67.1 194.7-167 0.4-4.6 0.5-9.2 0.5-13.8 3.5-96.1-71.4-177-167.5-180.9z m0 271.5c-50 3.9-93.6-33.5-97.5-83.5-3.9-50 33.5-93.6 83.5-97.5 50-3.9 93.6 33.5 97.5 83.5 0.2 2.3 0.3 4.7 0.3 7 1.7 48-35.8 88.5-83.8 90.5z" fill="#3592C1" p-id="3802"></path></svg>