<?xml version="1.0" standalone="no"?><!DOCTYPE svg PUBLIC "-//W3C//DTD SVG 1.1//EN" "http://www.w3.org/Graphics/SVG/1.1/DTD/svg11.dtd"><svg t="1503540981519" class="icon" style="" viewBox="0 0 1110 1024" version="1.1" xmlns="http://www.w3.org/2000/svg" p-id="3090" xmlns:xlink="http://www.w3.org/1999/xlink" width="34.6875" height="32"><defs><style type="text/css"></style></defs><path d="M987.219655 935.998375l-0.028111-0.02703v0.02703h0.028111c9.128638 10.667196 13.709715 22.471824 13.709716 35.413882 0 14.478454-5.14763 26.850715-15.443973 37.14922a50.691348 50.691348 0 0 1-37.177331 15.443972 55.648686 55.648686 0 0 1-17.720997-2.871688 47.23797 47.23797 0 0 1-15.446135-8.533973l-5.717427-4.579996-282.54123-284.559846c-67.839304 48.014277-143.730363 71.992223-227.612629 71.992224-8.391254 0-16.953339-0.369773-25.713285-1.108238a277.238987 277.238987 0 0 1-25.743558-3.441485 368.075582 368.075582 0 0 1-162.447152-59.449131c-53.361931-34.275369-96.057747-79.587708-128.086367-135.992159a370.894291 370.894291 0 0 1-36.038819-83.42924 408.413284 408.413284 0 0 1-16.015932-90.283016 387.184849 387.184849 0 0 1 5.149793-91.421528 377.363157 377.363157 0 0 1 50.345362-137.727497 380.387295 380.387295 0 0 1 98.362882-109.143606c33.562853-26.682047 71.111039-47.245539 112.669424-61.723993a384.917556 384.917556 0 0 1 127.51549-21.732277c18.318904 0 35.840958 1.137431 52.651577 3.443647 44.971759 6.086119 88.036266 19.795834 129.223798 41.130227a381.490127 381.490127 0 0 1 107.548824 82.289647c35.811766 37.347081 63.062528 81.52307 81.750124 132.580948 18.688677 51.057877 26.9091 102.856382 24.603965 155.421463-3.042519 87.638382-33.164969 166.486544-90.368431 236.574761l283.650549 284.559845h-1.108238v-0.002163z m-251.651122-522.270955a320.573797 320.573797 0 0 0-22.868627-137.132833 323.553606 323.553606 0 0 0-40.050101-75.433708c-16.781427-23.609254-36.408592-44.743624-58.879335-63.432301a338.493736 338.493736 0 0 0-72.619323-46.30705 332.296252 332.296252 0 0 0-178.43281-28.559024 52.741318 52.741318 0 0 0-10.297423 1.137431l-6.884051 1.139593a324.567779 324.567779 0 0 0-135.538051 54.272308 323.268167 323.268167 0 0 0-98.931598 106.865501c-28.187088 46.450851-43.633223 98.276386-46.335161 155.421464C62.059307 438.843878 72.52648 491.807925 96.190876 540.562829a320.019137 320.019137 0 0 0 86.33012 114.290155 330.5847 330.5847 0 0 0 126.380221 67.443583c48.811128 13.709715 97.993109 16.382461 147.542702 7.991207a332.576285 332.576285 0 0 0 75.519123-22.840516 345.815675 345.815675 0 0 0 68.040409-39.424081 346.38439 346.38439 0 0 0 57.2013-53.732786c17.153362-20.195881 31.460985-42.097908 42.894759-65.706081v0.027031a328.142252 328.142252 0 0 0 35.469023-134.883921z" p-id="3091" fill="#1296db"></path></svg>