<?xml version="1.0" standalone="no"?><!DOCTYPE svg PUBLIC "-//W3C//DTD SVG 1.1//EN" "http://www.w3.org/Graphics/SVG/1.1/DTD/svg11.dtd"><svg t="1503544088586" class="icon" style="" viewBox="0 0 1024 1024" version="1.1" xmlns="http://www.w3.org/2000/svg" p-id="6304" xmlns:xlink="http://www.w3.org/1999/xlink" width="48" height="48"><defs><style type="text/css"></style></defs><path d="M111.346149 827.583443c80.014544-86.189201 269.329733-270.983476 298.149919-300.479495 28.845786-29.485779 107.636662-97.652764 159.092137-137.639556 51.450355-39.986792 3.015649 18.237254 3.01565 18.237254L252.344391 787.816809c67.066196 28.512989 236.905104 31.093443 293.434447-50.359806-54.542804-8.79607-85.841044-41.609816-85.841044-41.609816 59.888029 0.814072 207.624122-8.954789 285.088932-198.669333-124.046095 29.296341-134.32183 6.420415-134.32183 6.420414 162.102667-46.294568 192.996431-142.779984 214.264694-175.250692 8.84215-13.501302 21.447461-42.15253 33.182382-70.998316 45.372977-128.812766 58.172847-229.854935 50.98444-251.276797-25.016065-22.747928-305.650642 8.171437-544.695884 273.589529-126.687988 140.675685-145.626675 200.189958-259.048878 462.059927-22.52777 52.013549-34.452129 88.390778-97.05885 176.981235 7.045048 2.201578 39.766634-25.4871 39.766634-25.4871s6.635452-4.648913 63.246715-65.632611zM891.242194 1000.192243a1026.641688 1026.641688 0 0 1-122.970905-8.412074c-40.667745-5.375945-80.951494-13.434743-119.714619-25.763578-4.843471-1.546224-9.661341-3.153888-14.453613-4.83835l-14.796649-5.160908a1519.856497 1519.856497 0 0 0-29.844176-9.922458 1068.932457 1068.932457 0 0 0-60.563862-17.484622c-40.795744-10.419094-82.528438-18.017096-124.778247-21.293863-42.234449-3.312606-84.934814-2.247657-126.984945 3.717082-42.045011 5.89306-83.35275 16.64495-123.057945 31.37504-38.471288 18.078536-74.766597 39.787114-108.189616 64.956778 38.20505-17.013586 76.860656-32.030393 116.391773-42.843723 38.21529-14.187375 77.838566-24.48359 118.153035-30.141133 40.278629-5.698502 81.197252-6.732731 121.839397-3.558364 40.672865 3.153888 81.048773 10.485653 120.784688 20.63851 19.875637 5.073868 39.623276 10.844049 59.232676 17.110865 9.79446 3.123168 19.57356 6.389695 29.3373 9.748381l14.637931 5.089228c5.002189 1.786862 10.050457 3.471325 15.108966 5.078988 40.498787 12.876669 82.077883 21.155624 123.800337 26.669808 41.778774 5.519304 83.762346 8.002478 125.715198 8.84727 41.998932-3.015649 83.777705-7.751601 124.732168-16.63983-41.783894-0.911351-83.250351-3.174368-124.378892-7.173047z" fill="#3592C1" p-id="6305"></path></svg>